<?xml version="1.0" encoding="utf-8"?>
<!-- Generator: Adobe Illustrator 15.0.2, SVG Export Plug-In . SVG Version: 6.00 Build 0)  -->
<!DOCTYPE svg PUBLIC "-//W3C//DTD SVG 1.1//EN" "http://www.w3.org/Graphics/SVG/1.1/DTD/svg11.dtd">
<svg version="1.1" id="Layer_1" xmlns="http://www.w3.org/2000/svg" xmlns:xlink="http://www.w3.org/1999/xlink" x="0px" y="0px"
	 width="195.247px" height="139.999px" viewBox="208.715 325.997 195.247 139.999"
	 enable-background="new 208.715 325.997 195.247 139.999" xml:space="preserve">
<path fill="#005D77" d="M341.885,390.396c-0.695,1.055-1.154,2.062-1.889,2.791c-1.271,1.262-2.727,2.527-4.711,1.854
	c-2.461-0.836-3.793-2.744-4.236-5.26c-0.062-0.367,0.068-0.887,0.309-1.166c0.877-1.029,1.718-2.154,2.795-2.934
	c1.652-1.189,2.021-0.99,3.453,0.404c0.826,0.805,1.886,1.369,2.724,2.166C340.917,388.816,341.309,389.583,341.885,390.396"/>
<path fill="#005D77" d="M383.76,391.81c2.133,0.104,4.705,2.115,5.258,4.213c0.125,0.48,0.058,1.088-0.119,1.562
	c-0.662,1.805-1.932,3.086-3.666,3.887c-1.202,0.557-2.278,0.262-3.129-0.73c-0.994-1.162-2.026-2.289-3.021-3.449
	c-0.178-0.205-0.347-0.496-0.354-0.752C378.674,394.714,381.883,391.72,383.76,391.81"/>
<path fill="#148E93" d="M355.043,337.878c0.182-1.723,0.227-3.17,1.838-3.852c1.873-0.791,3.756-0.939,5.479,0.25
	c1.468,1.01,1.638,5.279,0.261,6.441c-0.494,0.418-1.354,0.562-2.045,0.559c-1.234-0.016-2.479-0.166-3.693-0.402
	c-0.479-0.094-1.077-0.475-1.276-0.891C355.252,339.255,355.17,338.4,355.043,337.878"/>
<path fill="#005D77" d="M331.008,342.427c0.029-2.354,3.104-4.709,5.354-3.961c0.564,0.189,1.132,0.959,1.318,1.578
	c0.379,1.254,0.531,2.58,0.703,3.887c0.049,0.361-0.111,0.783-0.279,1.127c-0.117,0.242-0.391,0.428-0.623,0.594
	c-1.319,0.938-2.748,1.684-4.383,1.059C331.938,346.265,330.984,344.076,331.008,342.427"/>
<path fill="#005D77" d="M270.413,361.05c-0.511,0.066-1.332,0.166-2.152,0.279c-1.235,0.172-2.159-0.311-2.575-1.459
	c-0.306-0.842-0.523-1.768-0.535-2.656c-0.029-2.426,1.315-3.58,3.721-3.244c3.66,0.51,4.553,2.867,3.863,6.268
	C272.491,361.437,271.543,361.138,270.413,361.05"/>
<path fill="#148E93" d="M311.51,354.458c-0.203-0.033-0.736-0.102-1.266-0.197c-0.947-0.172-1.27-0.688-1.146-1.684
	c0.111-0.934-0.02-1.896-0.082-2.842c-0.098-1.457,0.398-2.33,1.814-2.701c0.902-0.238,1.885-0.373,2.812-0.301
	c2.032,0.156,2.899,1.303,2.739,3.35C316.154,352.96,314.661,354.4,311.51,354.458"/>
<path fill="#005D77" d="M320.467,352.708c0.328-1.756,1.135-3.207,2.664-4.184c1.02-0.65,2.002-0.189,2.787,0.389
	c3.371,2.484,3.01,5.424-0.002,7.914c-0.271,0.225-1,0.145-1.377-0.055c-0.943-0.504-1.779-1.207-2.715-1.73
	C320.875,354.515,320.471,353.753,320.467,352.708"/>
<path fill="#148E93" d="M350.35,359.333c-2.684,0-4.91-2.639-4.396-5.281c0.063-0.338,0.479-0.721,0.825-0.873
	c0.979-0.43,2.025-0.709,3.017-1.123c1.271-0.529,2.22-0.346,3.08,0.744c0.308,0.391,0.594,0.812,0.793,1.264
	C355.172,357.458,353.879,359.111,350.35,359.333"/>
<path fill="#148E93" d="M219.445,385.472c-0.004-2.543,1.209-3.604,3.714-3.111c0.834,0.164,1.668,0.527,2.396,0.977
	c0.928,0.576,1.241,1.479,0.92,2.59c-0.287,0.992-0.396,2.039-0.746,3.004c-0.158,0.439-0.697,1.041-1.076,1.053
	C221.717,390.062,219.387,388.984,219.445,385.472"/>
<path fill="#005D77" d="M391.172,382.785c0.123,0.008,0.248,0.012,0.371,0.021c1.814,0.146,3.537,1.262,3.854,2.496
	c0.338,1.312-0.697,3.68-2.002,4.578c-0.816,0.566-1.604,0.506-2.424-0.039c-0.925-0.617-1.894-1.172-2.822-1.783
	c-0.228-0.146-0.476-0.375-0.555-0.617C387.008,385.664,389.27,382.742,391.172,382.785"/>
<path fill="#005D77" d="M378.215,362.886c0.014,1.912-1.723,4.256-3.141,4.562c-0.408,0.088-0.904-0.021-1.312-0.168
	c-1.695-0.611-2.883-1.863-3.037-3.602c-0.158-1.773,1.002-3.104,2.488-4.01c0.279-0.17,0.863-0.076,1.188,0.105
	c0.934,0.52,1.854,1.088,2.684,1.756C377.618,361.962,377.984,362.601,378.215,362.886"/>
<path fill="#005D77" d="M245.93,369.15c0.473-0.301,1.066-0.318,1.557-0.051c0.99,0.539,1.99,1.064,2.886,1.73
	c0.438,0.326,0.703,1.17,0.68,1.764c-0.047,1.229-0.293,2.455-0.567,3.658c-0.058,0.25-0.601,0.58-0.896,0.557
	c-3.575-0.268-5.584-2.613-4.987-6.201C244.695,370.029,245.368,369.505,245.93,369.15"/>
<path fill="#148E93" d="M244.866,390.283c-0.527-0.174-1.589-0.41-2.535-0.875c-1.24-0.611-1.511-1.463-0.834-2.684
	c1.76-3.182,4.592-3.68,7.56-1.768c0.549,0.354,0.633,0.77,0.239,1.361c-0.478,0.719-0.897,1.482-1.244,2.273
	C247.538,389.781,246.645,390.273,244.866,390.283"/>
<path fill="#005D77" d="M256.52,357.421c1.781-0.008,3.537,0.895,3.875,1.99c0.373,1.205-0.778,3.758-2.213,4.42
	c-0.613,0.283-1.529,0.203-2.207-0.021c-0.967-0.314-1.856-0.883-2.74-1.412c-0.264-0.158-0.521-0.551-0.545-0.85
	C252.551,359.636,254.627,357.431,256.52,357.421"/>
<path fill="#148E93" d="M298.695,357.919c-0.562-1.254-1.239-2.473-1.646-3.775c-0.299-0.969,0.326-1.672,1.318-1.893
	c2.619-0.58,5.285,0.25,6.139,3.652c0.119,0.479,0.154,0.979,0.229,1.469C303.727,358.425,300.104,358.751,298.695,357.919"/>
<path fill="#005D77" d="M298.695,357.919c1.408,0.832,5.031,0.504,6.041-0.547c0.683,0.762,1.418,1.484,2.027,2.299
	c0.437,0.582,0.328,1.086-0.467,1.443c-0.777,0.35-1.48,0.885-2.178,1.393c-0.898,0.66-1.842,0.771-2.779,0.203
	c-0.664-0.4-1.291-0.893-1.848-1.436C298.543,360.345,298.152,359.23,298.695,357.919"/>
<path fill="#148E93" d="M236.562,387.478c-0.285,0.141-0.606,0.178-0.918,0.105c-1.686-0.393-3.11-2.328-2.811-3.574
	c0.08-0.334,0.318-0.736,0.604-0.895c1.011-0.559,2.066-1.023,3.117-1.506c0.131-0.062,0.324-0.035,0.473,0.01
	c1.925,0.582,2.701,3.516,1.216,4.846C237.711,386.937,237.038,387.25,236.562,387.478"/>
<path fill="#332C2A" d="M365.814,405.597c0.791,1.785,1.586,3.57,2.373,5.357c0.142,0.32,0.258,0.648,0.41,1.041
	c-0.279,0.115-0.484,0.201-0.785,0.326c-0.377-0.801-0.74-1.545-1.086-2.305c-1.358-2.977-2.729-5.945-4.061-8.938
	c-0.303-0.678-0.707-1.053-1.459-1.223c-3.385-0.764-6.758-1.562-10.121-2.404c-0.641-0.162-1.17-0.119-1.705,0.207
	c-0.572,0.35-1.141,0.715-1.836,1.152c0.604,0.555,1.115,1.033,1.635,1.51c0.527,0.484,1.062,0.967,1.592,1.455
	c0.353,0.324,0.707,0.645,1.025,1c0.072,0.08,0.07,0.332-0.002,0.414c-0.068,0.082-0.312,0.111-0.406,0.055
	c-0.234-0.146-0.434-0.355-0.641-0.541c-1.033-0.939-2.061-1.889-3.098-2.824c-0.709-0.637-0.736-0.646-1.545-0.137
	c-2.662,1.688-5.312,3.395-7.97,5.098c-4.065,2.607-8.141,5.203-12.19,7.832c-0.594,0.385-1.133,0.881-1.609,1.404
	c-1.479,1.623-2.893,3.307-4.383,4.918c-0.77,0.83-6.492,8.328-7.521,9.494c-0.265,0.301-0.392,0.775-0.451,1.189
	c-0.072,0.51,0.02,1.037-0.015,1.555c-0.133,2.188,0.3,22.199,0.464,24.348c0.079,1.07,0.387,2.031,1.168,2.803
	c1.274,1.268,2.549,2.531,3.832,3.787c0.196,0.191,0.442,0.332,0.844,0.625c-0.461,0.158-0.656,0.277-0.857,0.285
	c-0.916,0.033-1.836,0.045-2.754,0.047c-1.24,0.002-2.986,0.047-4.205,0.211c-2.23,0.301-3.641,1.461-5.639,2.35
	c-0.273,0.121-0.574,0.189-0.938,0.307c0-0.646,0.053-1.195-0.016-1.73c-0.062-0.479-0.256-0.938-0.426-1.525
	c-0.543-0.078-1.248-0.189-1.951-0.281c-0.65-0.086-1.334,0.104-2.074-0.23c0.244-0.264,0.412-0.475,0.609-0.645
	c0.961-0.84,1.928-1.678,2.904-2.5c2.082-1.75,3.254-3.996,3.61-6.672c0.33-2.486,0.621-4.98,0.928-7.475
	c0.015-0.115,0.024-0.236,0.027-0.355c0.094-3.43,0.267-6.861,0.235-10.291c-0.012-1.41-0.434-2.824-0.729-4.223
	c-0.078-0.367-0.388-0.689-0.59-1.029c-0.729-1.234-1.451-2.471-2.188-3.699c-0.226-0.375-0.478-0.736-0.738-1.088
	c-2.771-3.711-5.555-7.412-8.308-11.137c-0.448-0.607-0.967-0.996-1.687-1.232c-7.016-2.287-14.018-4.605-21.03-6.895
	c-0.558-0.184-1.172-0.277-1.754-0.248c-1.791,0.086-3.576,0.27-5.367,0.381c-1.989,0.123-3.981,0.227-5.978,0.297
	c-1.301,0.045-2.485,0.301-3.594,1.074c-1.83,1.275-3.729,2.465-5.617,3.662c-0.571,0.357-0.922,0.811-1.131,1.465
	c-0.94,2.922-1.918,5.836-2.904,8.744c-0.188,0.553-0.205,1.061-0.039,1.625c0.464,1.562,0.88,3.145,1.308,4.725
	c0.093,0.34,0.151,0.689,0.255,1.156c-0.531,0.123-0.367,0.229-0.938,0.365c-0.301-1.035-0.566-1.945-0.826-2.857
	c-0.225-0.779-0.391-1.48-0.686-2.416c-0.215-0.68-0.963-0.77-1.674-0.584c-0.763,0.199-1.511,0.479-2.229,0.801
	c-0.707,0.316-1.344,0.793-2.049,1.074c-0.357-0.535-0.051-0.713,0.221-0.869c0.934-0.539,1.869-1.07,2.814-1.588
	c1.942-1.061,1.951-1.053,2.627-3.096c0.752-2.271,1.498-4.545,2.24-6.82c0.106-0.332,0.186-0.676,0.291-1.078
	c-0.314-0.061-0.539-0.135-0.767-0.143c-0.521-0.021-1.037-0.006-1.558-0.012c-0.879-0.004-1.787,0.133-2.627-0.053
	c-0.789-0.168-1.504-0.67-2.346-1.066c-1.49,0.844-3.01,1.811-4.621,2.584c-1.307,0.625-1.947,1.549-2.309,2.93
	c-0.725,2.773-1.619,5.506-2.453,8.254c-0.199,0.658-0.312,1.287-0.111,1.988c0.207,0.723,0.271,1.486,0.379,2.234
	c0.023,0.176-0.037,0.355-0.084,0.744c-0.271-0.291-0.496-0.42-0.531-0.588c-0.223-1.053-0.432-2.107-0.58-3.174
	c-0.047-0.338,0.064-0.711,0.162-1.049c0.625-2.145,1.261-4.285,1.906-6.422c0.166-0.553,0.234-1.086,0.014-1.635
	c-0.161-0.402-0.428-0.592-0.885-0.678c-1.838-0.346-3.697-0.465-5.557-0.633c-1.219-0.107-2.365-0.039-3.434,0.682
	c-0.727,0.488-1.539,0.846-2.316,1.252c-0.285,0.148-0.541,0.162-0.658-0.379c1.436-0.797,2.912-1.613,4.457-2.473
	c-1.041-1.312-1.994-2.52-2.949-3.725c0.058-0.061,0.109-0.117,0.166-0.18c0.166,0.105,0.369,0.184,0.488,0.324
	c0.871,1.039,1.732,2.088,2.586,3.146c0.342,0.424,0.727,0.686,1.311,0.703c2.312,0.064,4.625,0.172,6.937,0.256
	c0.236,0.008,0.474-0.029,0.769-0.049c0.229-0.879,0.881-1.332,1.646-1.738c1.652-0.883,3.264-1.84,4.994-2.824
	c-0.256-0.225-0.428-0.418-0.641-0.553c-2.045-1.322-4.062-2.693-6.16-3.916c-0.91-0.531-1.986-0.801-3.018-1.082
	c-0.334-0.092-0.773,0.113-1.14,0.25c-2.948,1.113-5.892,2.244-8.834,3.369c-0.373,0.143-0.735,0.326-1.123,0.408
	c-0.33,0.07-0.729,0.129-1.024,0.012c-1.775-0.715-3.529-1.48-5.291-2.232c-0.062-0.025-0.09-0.125-0.197-0.289
	c0.178-0.096,0.361-0.283,0.508-0.258c0.348,0.066,0.678,0.227,1.01,0.363c1.25,0.521,2.5,1.053,3.75,1.582
	c0.408,0.172,0.791,0.273,1.26,0.094c3.346-1.299,6.705-2.564,10.06-3.85c0.176-0.066,0.334-0.182,0.555-0.305
	c-0.188-0.369-0.33-0.691-0.51-0.99c-1.379-2.291-2.779-4.57-4.138-6.873c-0.282-0.482-0.631-0.793-1.141-0.986
	c-0.635-0.238-1.254-0.516-1.879-0.779c-0.221-0.094-0.48-0.146-0.641-0.305c-0.139-0.133-0.219-0.396-0.193-0.586
	c0.014-0.098,0.33-0.25,0.473-0.217c0.383,0.088,0.75,0.258,1.121,0.408c0.562,0.23,1.131,0.371,1.812,0.164
	c0.033-0.25,0.113-0.518,0.104-0.777c-0.051-1.195-0.125-2.389-0.188-3.582c-0.007-0.08-0.019-0.16-0.019-0.24
	c-0.002-0.367-0.02-0.768,0.504-0.768c0.443,0,0.463,0.361,0.482,0.686c0.082,1.273,0.273,2.553,0.209,3.818
	c-0.092,1.773,0.441,3.254,1.477,4.67c1.129,1.545,2.15,3.172,3.164,4.797c0.742,1.189,1.84,1.891,3.107,2.279
	c1.979,0.604,4,1.082,6.004,1.613c0.607,0.162,1.186,0.131,1.705-0.268c0.062-0.051,0.131-0.096,0.203-0.131
	c2.016-1.027,3.75-2.395,5.146-4.189c0.756-0.971,1.623-1.855,2.451-2.789c-1.082-0.461-2.308-0.172-3.384-0.775
	c0.338-0.562,0.767-0.414,1.129-0.375c0.752,0.076,1.511,0.16,2.248,0.318c0.455,0.102,0.756,0.004,1.052-0.332
	c0.924-1.049,1.854-2.092,2.801-3.119c0.348-0.375,0.369-0.736,0.192-1.199c-0.286-0.744-0.573-1.498-0.748-2.271
	c-0.459-2.066-1.875-3.129-3.758-3.768c-3.321-1.127-6.644-2.27-9.955-3.43c-0.743-0.26-1.435-0.291-2.209-0.074
	c-6.953,1.93-13.916,3.82-20.877,5.727c-0.347,0.094-0.688,0.221-1.041,0.258c-0.188,0.021-0.392-0.123-0.644-0.209
	c0.349-0.58,0.875-0.564,1.308-0.686c4.535-1.252,9.073-2.482,13.61-3.727c2.5-0.682,5.002-1.355,7.494-2.066
	c0.873-0.25,1.701-0.348,2.541,0.096c0.269,0.141,0.586,0.182,1.127,0.34c-0.354-0.371-0.52-0.572-0.711-0.746
	c-2.403-2.162-4.807-4.328-7.227-6.473c-0.32-0.285-0.717-0.502-1.105-0.695c-1.68-0.834-3.369-1.646-5.053-2.475
	c-0.365-0.18-0.844-0.277-0.807-1.027c1.271,0.375,2.322,0.984,3.412,1.508c1.111,0.537,2.219,1.082,3.467,1.691
	c0.035-0.424,0.082-0.752,0.088-1.084c0.014-0.719-0.014-1.438,0.02-2.156c0.013-0.246,0.146-0.486,0.217-0.711
	c0.578,0.049,0.523,0.424,0.527,0.721c0.017,0.998,0.037,1.998,0,2.994c-0.024,0.652,0.17,1.125,0.666,1.566
	c2.629,2.33,5.219,4.705,7.855,7.025c0.463,0.408,1.051,0.727,1.637,0.939c1.871,0.68,3.768,1.291,5.807,1.98
	c-0.088-0.654-0.153-1.189-0.233-1.729c-0.263-1.771-0.528-3.545-0.785-5.32c-0.221-1.533-0.993-2.768-2.116-3.781
	c-1.541-1.395-3.111-2.75-4.671-4.121c-0.391-0.342-0.758-0.717-1.178-1.02c-0.771-0.549-1.117-1.285-1.235-2.207
	c-0.22-1.697-0.513-3.389-0.757-5.084c-0.034-0.246,0.033-0.508,0.244-0.793c0.092,0.281,0.226,0.559,0.271,0.848
	c0.268,1.73,0.516,3.469,0.764,5.201c0.074,0.527,0.229,0.998,0.652,1.365c1.903,1.646,3.795,3.305,5.696,4.949
	c0.173,0.148,0.392,0.246,0.496,0.311c0.716-0.84,1.392-1.611,2.037-2.404c0.226-0.273,0.399-0.598,0.562-0.916
	c1.162-2.318,2.301-4.648,3.479-6.963c0.305-0.6,0.4-1.164,0.27-1.836c-0.231-1.166-0.369-2.354-0.543-3.516
	c0.795-0.297,0.87-0.291,0.973,0.293c0.234,1.334,0.466,2.672,0.619,4.018c0.041,0.355-0.16,0.77-0.33,1.113
	c-1.229,2.51-2.438,5.029-3.741,7.498c-0.604,1.145-0.787,2.352-0.802,3.574c-0.012,1.23,0.136,2.463,0.295,3.686
	c0.246,1.855,0.642,3.693,0.824,5.557c0.103,1.02,0.625,1.533,1.551,2.055c-0.672-1.881-0.362-3.68-0.399-5.457
	c-0.019-0.855-0.123-1.654-0.478-2.439c-0.377-0.834-0.7-1.693-1.021-2.557c-0.079-0.217-0.047-0.477-0.088-0.979
	c0.916,0.625,0.94,1.443,1.254,2.08c0.312,0.639,0.552,1.312,0.853,2.047c1.315-0.82,2.295-1.979,3.727-2.529
	c-0.133,0.166-0.244,0.357-0.402,0.488c-0.799,0.664-1.596,1.33-2.422,1.959c-0.49,0.373-0.697,0.812-0.682,1.432
	c0.031,1.318-0.092,2.646,0.043,3.951c0.104,1.014,0.48,2,0.777,2.986c0.062,0.207,0.281,0.383,0.459,0.535
	c2.535,2.133,5.076,4.26,7.619,6.385c0.18,0.146,0.383,0.264,0.586,0.398c0.489-0.389,0.582-0.883,0.582-1.414
	c0-2.074,0.028-4.152-0.021-6.229c-0.017-0.623-0.224-1.25-0.396-1.861c-0.459-1.609-0.959-3.209-1.414-4.818
	c-0.179-0.625-0.146-0.635,0.799-0.912c0.133,0.352,0.287,0.707,0.398,1.072c0.387,1.26,0.752,2.521,1.139,3.779
	c0.09,0.293,0.233,0.568,0.41,0.982c0.459-0.27,0.854-0.439,1.186-0.695c1.316-1.037,2.611-2.104,3.918-3.152
	c0.365-0.297,0.744-0.578,1.182-0.918c0.256,0.275,0.451,0.488,0.723,0.781c-1.2,1-2.33,1.939-3.461,2.881
	c-0.858,0.715-1.698,1.455-2.584,2.135c-0.494,0.381-0.688,0.809-0.678,1.428c0.033,1.598-0.012,3.193,0.021,4.793
	c0.018,0.895-0.062,1.75-0.562,2.523c-0.082,0.127-0.096,0.299-0.166,0.545c0.299,0.283,0.596,0.596,0.924,0.873
	c2.408,2.037,4.83,4.059,7.228,6.107c0.483,0.416,0.967,0.652,1.617,0.594c0.348-0.031,0.729,0.01,1.059,0.121
	c2.38,0.803,4.818,1.393,7.229,2.076c2.604,0.738,5.144,1.719,7.688,2.646c2.211,0.812,4.414,1.625,6.75,2.002
	c0.113,0.021,0.229,0.002,0.479,0.002c0.031-1.824-0.203-9.395-0.418-10.555c-0.613-3.33-1.133-6.68-1.764-10.006
	c-0.214-1.129-0.628-2.223-0.986-3.32c-0.383-1.17-0.81-2.324-1.25-3.59c-0.709,0.203-1.353,0.389-2.121,0.607
	c-0.084,0.604-0.221,1.221-0.24,1.842c-0.039,1.156-0.004,2.314-0.018,3.475c-0.004,0.334-0.064,0.668-0.101,1l-0.269,0.035
	c-0.084-0.221-0.233-0.438-0.237-0.66c-0.024-1.234-0.008-2.477-0.021-3.713c-0.014-1.301-0.182-1.541-1.487-1.648
	c-1.351-0.115-2.709-0.102-4.063-0.156c-0.455-0.021-0.748,0.178-0.978,0.553c-0.203,0.332-0.445,0.639-0.789,1.123
	c-0.125-0.369-0.287-0.596-0.231-0.732c0.161-0.404,0.407-0.771,0.641-1.186c-0.363-0.912-1.127-1.529-1.672-2.301
	c-0.205-0.293-0.457-0.561-0.623-0.871c-0.051-0.096,0.104-0.307,0.246-0.658c0.717,0.863,1.389,1.547,1.906,2.328
	c0.532,0.805,1.196,1.041,2.116,1.004c1.519-0.061,3.035-0.027,4.554-0.014c1.062,0.01,2.021-0.33,3.02-0.77
	c-0.025-0.225-0.016-0.426-0.076-0.604c-0.883-2.562-1.766-5.129-2.674-7.684c-0.158-0.443-0.385-0.881-0.664-1.258
	c-1.805-2.438-3.639-4.855-5.449-7.291c-0.346-0.467-0.721-0.783-1.334-0.895c-1.293-0.23-2.561-0.674-3.857-0.805
	c-1.35-0.135-2.678-0.352-4.018-0.527c-1.482-0.199-2.922,0.297-4.369,0.555c-1.844,0.324-3.676,0.715-5.516,1.062
	c-0.373,0.068-0.756,0.09-1.104,0.131c-0.17-0.529,0.075-0.641,0.377-0.699c1.172-0.232,2.345-0.469,3.517-0.697
	c1.644-0.322,3.291-0.619,4.926-0.967c1.729-0.363,1.777-0.467,1.406-2.141c-0.231-1.053-0.453-2.105-0.666-3.158
	c-0.045-0.229-0.041-0.461-0.063-0.756c0.366-0.113,0.696-0.215,1.135-0.35c0.127,0.32,0.271,0.596,0.34,0.887
	c0.191,0.811,0.35,1.637,0.521,2.455c0.272,1.293,0.975,2.105,2.344,2.379c1.875,0.367,3.727,0.857,5.588,1.283
	c0.295,0.066,0.604,0.068,0.979,0.105c0.203-2.586,0.416-5.07,0.293-7.643c-1.496-0.375-2.918-0.74-4.344-1.086
	c-1.434-0.35-2.869-0.688-4.307-1.021c-0.611-0.143-1.072-0.432-1.367-1.031c-0.527-1.07-1.125-2.111-1.688-3.17
	c-0.153-0.289-0.323-0.594,0.271-0.811c0.192,0.301,0.419,0.611,0.604,0.947c0.464,0.84,0.919,1.682,1.359,2.529
	c0.231,0.451,0.543,0.717,1.069,0.838c2.099,0.484,4.179,1.037,6.271,1.537c0.408,0.102,0.845,0.072,1.481,0.119
	c-0.866-1.41-1.614-2.629-2.362-3.844c-0.377-0.611-0.795-1.201-1.129-1.836c-0.906-1.723-2.199-3.119-3.628-4.414
	c-0.239-0.217-0.737-0.494-0.434-0.846c0.426-0.49,0.688,0.125,0.926,0.355c1.015,0.984,1.994,2.008,2.916,2.949
	c-0.307-1.672-0.987-3.416-0.979-5.357c0.149,0.135,0.375,0.242,0.437,0.41c0.182,0.484,0.309,0.988,0.436,1.492
	c0.279,1.121,0.602,2.234,0.811,3.371c0.342,1.842,1.111,3.477,2.172,5.002c0.496,0.715,0.929,1.475,1.49,2.375
	c0-2.59-0.012-4.982,0.01-7.377c0.004-0.568-0.293-0.973-0.555-1.418c-0.158-0.271-0.541-0.553-0.053-0.984
	c0.286,0.23,0.577,0.463,0.971,0.777c0.643-0.805,1.275-1.6,1.885-2.359c0.479,0.09,0.543,0.32,0.34,0.611
	c-0.391,0.557-0.786,1.105-1.217,1.631c-0.453,0.551-0.662,1.141-0.643,1.865c0.041,1.518,0.008,3.035,0.018,4.553
	c0,0.311,0.047,0.619,0.084,1.088c0.396-0.363,0.689-0.619,0.965-0.893c0.597-0.592,1.183-1.189,1.771-1.787
	c1.438-1.457,1.434-1.459,1.691-3.502c0.092-0.713,0.184-1.424,0.297-2.131c0.047-0.303,0.072-0.646,0.596-0.734
	c0.053,0.252,0.178,0.506,0.145,0.738c-0.198,1.381-0.399,2.762-0.68,4.127c-0.08,0.395-0.361,0.789-0.648,1.092
	c-1.129,1.188-2.299,2.332-3.444,3.5c-0.771,0.785-0.961,1.67-0.426,2.594c1.604,2.762,3.25,5.496,4.885,8.238
	c0.035,0.061,0.127,0.092,0.263,0.184c1.315-1.111,2.647-2.236,4.055-3.424c-1.146-1.078-2.555-1.721-3.742-3.002
	c0.43-0.023,0.676-0.117,0.807-0.033c0.734,0.48,1.443,1.004,2.158,1.512c0.42,0.299,0.838,0.604,1.348,0.969
	c1.279-0.957,2.506-1.961,3.627-3.084c0.226-0.227,0.295-0.645,0.359-0.986c0.41-2.152,0.797-4.311,1.191-6.465
	c0.062-0.34,0.012-0.744,0.584-0.875c0.062,0.193,0.205,0.406,0.172,0.588c-0.412,2.355-0.881,4.699-1.269,7.059
	c-0.12,0.732-0.456,1.238-1.01,1.684c-0.778,0.623-1.528,1.283-2.297,1.92c-0.211,0.178-0.438,0.334-0.771,0.586
	c0.756,0.557,1.355,1,1.961,1.439c0.679,0.492,1.32,1.051,2.051,1.449c1.005,0.555,1.291,1.43,1.386,2.457
	c0.084,0.914,0.181,1.826,0.295,2.734c0.039,0.309,0.151,0.607,0.25,0.977c0.664-0.061,1.17-0.354,1.608-0.752
	c1.664-1.49,3.324-2.986,4.957-4.516c0.232-0.219,0.401-0.598,0.438-0.92c0.065-0.625,0.021-1.264,0.021-2.045
	c-1.887,0.527-3.506,1.459-5.312,1.812c0.649-0.711,1.562-0.881,2.377-1.234c0.793-0.346,1.597-0.666,2.548-1.062
	c-2.226-1.299-4.48-2.186-6.521-3.395c0.144-0.539,0.403-0.496,0.685-0.359c0.79,0.383,1.575,0.773,2.362,1.162
	c1.209,0.6,2.418,1.197,3.685,1.822c0.289-0.562,0.188-1.084,0.166-1.576c-0.029-0.684,0.162-1.242,0.623-1.742
	c0.379-0.41,0.69-0.883,1.088-1.271c0.104-0.105,0.436-0.072,0.604,0.012c0.092,0.045,0.141,0.379,0.066,0.506
	c-0.195,0.344-0.428,0.688-0.711,0.957c-0.664,0.635-0.877,1.395-0.791,2.279c0.032,0.354,0.006,0.713,0.006,1.182
	c0.615,0.113,1.188,0.242,1.768,0.318c1.855,0.244,3.715,0.467,5.572,0.703c0.951,0.123,1.271,0.092,1.984-0.236
	c-0.207-1.076-0.425-2.162-0.619-3.254c-0.072-0.396-0.273-0.646-0.662-0.758c-0.459-0.133-0.92-0.262-1.371-0.418
	c-0.16-0.057-0.295-0.186-0.369-0.496c0.67,0.131,1.338,0.264,2.135,0.42c-0.342-1.816-0.699-3.52-0.973-5.234
	c-0.174-1.1-0.598-2.02-1.332-2.863c-1.074-1.229-2.062-2.541-3.078-3.82c-0.189-0.242-0.438-0.498,0.018-0.916
	c0.885,0.74,1.478,1.729,2.205,2.584c0.728,0.848,1.402,1.732,2.234,2.77c0.184-0.857,0.332-1.564,0.479-2.273
	c0.062-0.299,0.014-0.752,0.451-0.703c0.479,0.057,0.271,0.475,0.223,0.77c-0.092,0.549-0.142,1.113-0.293,1.646
	c-0.525,1.809-0.064,3.555,0.266,5.311c0.143,0.742,0.324,1.48,0.428,2.23c0.082,0.602,0.373,0.895,0.957,1.051
	c1.883,0.506,3.754,1.061,5.807,1.645c-0.147-0.361-0.229-0.604-0.344-0.826c-0.531-1.027-1.072-2.053-1.604-3.076
	c-0.148-0.283-0.32-0.576,0.196-0.857c0.179,0.244,0.379,0.471,0.517,0.729c0.842,1.588,1.692,3.168,2.481,4.781
	c0.322,0.66,0.781,1.053,1.451,1.314c1.553,0.611,3.086,1.271,4.605,1.904c0.758-0.812,0.816-1.604,0.375-2.562
	c-0.98-2.139-1.854-4.326-2.803-6.479c-0.318-0.723-0.449-1.4-0.23-2.189c0.309-1.111,0.49-2.258,0.777-3.377
	c0.084-0.334,0.051-0.832,0.66-0.893c0.258,0.438,0.082,0.855-0.006,1.258c-0.234,1.092-0.523,2.172-0.73,3.268
	c-0.076,0.41-0.104,0.898,0.047,1.271c0.846,2.066,1.748,4.111,2.641,6.16c0.062,0.141,0.168,0.262,0.307,0.469
	c0.296-0.113,0.611-0.174,0.855-0.34c1.287-0.875,2.549-1.789,3.836-2.664c0.547-0.371,0.475-0.832,0.361-1.371
	c-0.49-2.381-0.959-4.766-1.426-7.15c-0.049-0.254-0.031-0.52,0.039-0.793c0.629,0.779,0.576,1.76,0.807,2.646
	c0.248,0.963,0.381,1.955,0.576,2.934c0.188,0.93,0.389,1.855,0.604,2.867c0.215-0.082,0.367-0.104,0.482-0.188
	c1.4-0.992,2.803-1.982,4.189-2.994c0.674-0.49,0.778-0.889,0.438-1.639c-0.184-0.395-0.434-0.764-0.678-1.127
	c-1.723-2.596-3.451-5.186-5.176-7.775c-0.242-0.363-0.474-0.734-0.769-1.195c0.328-0.266,0.621-0.504,1.006-0.814
	c0.271,0.336,0.503,0.592,0.693,0.875c1.381,2.057,2.739,4.123,4.135,6.168c0.312,0.453,0.679,0.902,1.113,1.229
	c1.243,0.928,2.493,0.701,3.407-0.572c0.884-1.232,1.705-2.512,2.617-3.723c0.688-0.914,1.133-1.889,1.348-3.018
	c0.32-1.684,0.753-3.346,1.146-5.012c0.082-0.346,0.197-0.686,0.33-1.016c0.029-0.068,0.209-0.127,0.303-0.105
	s0.228,0.143,0.229,0.225c0.014,0.189-0.026,0.391-0.069,0.582c-0.5,2.215-0.981,4.436-1.524,6.641
	c-0.118,0.486-0.405,0.953-0.696,1.373c-1.703,2.461-3.416,4.918-5.16,7.352c-0.471,0.658-0.719,1.318-0.508,2.279
	c1.045-1.504,2.021-2.924,3.01-4.332c1.009-1.439,2.017-2.877,3.05-4.299c1.018-1.396,1.954-2.855,3.225-4.396
	c0.086,0.752-0.246,1.018-0.459,1.316c-2.775,3.951-5.551,7.906-8.35,11.844c-0.392,0.551-0.578,1.1-0.568,1.771
	c0.025,2.115,0.006,4.23,0.014,6.35c0,0.559-0.025,1.131,0.584,1.586c0.531-0.223,1.115-0.453,1.688-0.711
	c2.983-1.344,5.975-2.676,8.938-4.057c0.521-0.244,1.008-0.643,1.397-1.068c2-2.176,3.963-4.383,5.933-6.586
	c0.155-0.176,0.246-0.408,0.396-0.658c0.428,0.348,0.66,0.537,0.975,0.791c-2.189,2.555-4.334,5.053-6.611,7.705
	c0.496,0.164,0.807,0.305,1.133,0.367c4.023,0.789,8.051,1.568,12.185,2.371c0.725-2.021,1.159-4.119,1.885-6.068
	c0.705,0.012,0.826,0.334,0.696,0.801c-0.231,0.846-0.485,1.686-0.733,2.525c-0.271,0.916-0.543,1.83-0.834,2.814
	c0.272,0.135,0.535,0.264,1.06,0.52c-0.57,0.086-0.877,0.133-1.252,0.189c-0.324,1.072-0.709,2.162-0.979,3.281
	c-0.388,1.607-1.08,3.074-1.856,4.521c-0.869,1.617-1.691,3.26-2.56,4.877c-0.312,0.578-0.472,1.172-0.494,1.824
	c-0.062,1.875-0.144,3.748-0.223,5.621c-0.039,0.951-0.097,1.902-0.146,2.861c0.074,0.008,0.17,0.045,0.203,0.018
	c0.938-0.799,2.074-1.15,3.229-1.484c0.882-0.256,1.746-0.562,2.632-0.807c1.549-0.432,2.983-1.082,4.346-1.949
	c2.021-1.285,4.082-2.508,6.146-3.725c0.584-0.344,0.955-0.775,1.205-1.408c1.379-3.486,2.789-6.961,4.196-10.439
	c0.146-0.354,0.332-0.688,0.488-1.014c0.519,0.129,0.494,0.396,0.381,0.684c-0.41,1.037-0.825,2.074-1.244,3.109
	c-0.895,2.221-1.793,4.439-2.688,6.658c-0.101,0.25-0.183,0.51-0.347,0.977c0.433-0.262,0.693-0.4,0.938-0.568
	c2.562-1.77,5.121-3.543,7.685-5.314c0.229-0.156,0.45-0.346,0.707-0.439c0.122-0.043,0.312,0.105,0.659,0.232
	c-0.44,0.348-0.729,0.6-1.043,0.814c-2.885,2.008-5.756,4.035-8.668,5.996c-0.817,0.553-1.209,1.227-1.209,2.176
	c-0.002,1.145,0,2.291,0,3.52c2.812,0.277,5.494,0.543,8.235,0.812v0.908c-0.114,0.084-0.146,0.129-0.178,0.127
	c-2.612-0.168-5.229-0.342-7.94-0.52c-0.222,1.182-0.115,2.27-0.047,3.375c2.059-0.23,4.063-0.412,6.059-0.689
	c3.147-0.434,5.304-0.479,5.976,0.014c-0.58,0.379-1.226,0.354-1.82,0.404c-2.305,0.201-4.613,0.32-6.914,0.553
	c-1.104,0.109-2.195,0.379-3.281,0.629c-0.332,0.076-0.646,0.303-0.93,0.514c-1.881,1.418-3.76,2.842-5.621,4.279
	c-1.141,0.879-1.234,1.033-1.584,2.092c0.217,0.182,0.438,0.406,0.701,0.57c0.562,0.354,0.92,0.852,1.211,1.441
	c0.201,0.418,0.473,0.846,0.82,1.141c1.436,1.209,2.922,2.354,4.364,3.553c0.613,0.512,1.263,0.803,2.072,0.75
	c0.351-0.021,0.729,0.02,1.058,0.143c1.6,0.613,3.182,1.23,4.532,2.365c1.927,1.615,3.947,3.113,5.927,4.668
	c0.245,0.191,0.469,0.412,0.832,0.732c-0.316,0.104-0.541,0.264-0.677,0.207c-0.286-0.119-0.537-0.338-0.789-0.533
	c-2.012-1.574-4.047-3.121-6.021-4.742c-1.271-1.043-2.799-1.502-4.26-2.127c-0.072-0.029-0.162-0.074-0.229-0.059
	c-0.218,0.057-0.479,0.086-0.623,0.229c-0.086,0.086-0.032,0.377,0.037,0.543c0.106,0.256,0.282,0.48,0.437,0.715
	c2.315,3.635,4.637,7.27,6.955,10.902c0.104,0.17,0.272,0.326,0.311,0.508c0.033,0.199,0.021,0.496-0.102,0.615
	c-0.242,0.238-0.515,0.123-0.695-0.156c-0.105-0.168-0.221-0.332-0.326-0.5c-2.148-3.363-4.297-6.729-6.443-10.096
	c-0.43-0.672-0.906-1.316-1.283-2.02c-0.332-0.613-0.783-0.793-1.455-0.785c-3.834,0.021-7.668,0.012-11.5,0.012
	c-0.959,0-1.918-0.008-2.875,0.004c-0.631,0.008-0.631,0.02-1.354,0.561c0.244,0.551,0.441,1.158,0.777,1.682
	c0.223,0.344,0.604,0.625,0.977,0.82c0.646,0.348,1.189,0.779,1.645,1.359c2.627,3.365,5.269,6.725,7.896,10.092
	c0.188,0.24,0.334,0.52,0.57,0.891c-0.516,0.051-0.654-0.26-0.828-0.48c-2.32-2.949-4.637-5.902-6.949-8.854
	c-0.396-0.502-0.799-0.998-1.178-1.514c-0.396-0.531-0.889-0.902-1.541-1.049l-0.035-0.051L365.814,405.597z M322.527,385.722
	c-0.571,0.793-0.967,1.84-1.438,2.846c-0.254,0.541-0.475,1.1-0.764,1.619c-0.066,0.121-0.35,0.125-0.639,0.217
	c0.047-0.309,0.039-0.473,0.1-0.607c0.652-1.5,1.305-3,1.98-4.488c0.383-0.84,0.471-0.846,1.383-0.746
	c2.481,0.273,4.971,0.525,7.531,0.795c-0.093-0.389-0.144-0.695-0.236-0.99c-1.445-4.602-2.889-9.197-4.367-13.785
	c-0.152-0.471-0.469-0.939-0.824-1.285c-2.434-2.363-4.896-4.695-7.352-7.037c-0.06-0.055-0.117-0.107-0.185-0.156
	c-0.465-0.336-2.004-0.564-2.381-0.307c-0.649,0.451-1.271,0.945-1.957,1.461c1.062,0.967,2.332,1.5,3.218,2.461
	c-0.228,0.492-0.486,0.344-0.728,0.186c-0.861-0.578-1.724-1.154-2.57-1.758c-0.403-0.285-0.815-0.449-1.325-0.439
	c-1.638,0.027-3.271,0.039-4.908,0.023c-0.521-0.004-0.912,0.189-1.281,0.529c-2.057,1.891-4.133,3.762-6.18,5.662
	c-0.312,0.289-0.604,0.664-0.738,1.057c-0.789,2.301-1.537,4.613-2.275,6.932c-0.25,0.785-0.082,1.039,0.736,1.066
	c1.234,0.045,2.475-0.002,3.711,0.037c0.641,0.021,1.137-0.223,1.652-0.564c1.727-1.15,3.479-2.264,5.227-3.377
	c0.184-0.117,0.41-0.158,0.602-0.229c0.312,0.389,0.103,0.574-0.146,0.736c-0.771,0.5-1.547,0.99-2.314,1.488
	c-1.135,0.732-2.266,1.475-3.49,2.271c0.488,0.311,0.854,0.541,1.222,0.773c0.405,0.254,0.832,0.48,1.205,0.775
	c0.123,0.098,0.11,0.365,0.202,0.723c-0.391-0.154-0.614-0.209-0.809-0.322c-0.621-0.361-1.211-0.781-1.852-1.104
	c-0.412-0.209-0.887-0.381-1.338-0.396c-1.314-0.051-2.635-0.027-3.951-0.008c-1.1,0.016-1.355,0.207-1.723,1.281
	c-0.678,2-1.334,4.01-2.006,6.012c-0.144,0.422-0.166,0.822-0.082,1.277c0.511,2.742,0.979,5.49,1.461,8.236
	c0.881,5.021,1.774,10.041,2.627,15.068c0.104,0.627,0.371,1.121,0.729,1.604c3.459,4.639,6.918,9.277,10.384,13.912
	c0.182,0.246,0.409,0.455,0.702,0.773c0.474-0.408,0.9-0.746,1.291-1.125c4.488-4.328,8.509-9.094,12.675-13.717
	c0.858-0.951,1.312-2.01,1.604-3.242c1.778-7.564,3.627-15.111,5.446-22.664c0.08-0.334,0.125-0.682,0.207-1.123
	C327.859,385.876,325.301,385.212,322.527,385.722 M341.125,374.5c-0.139,0.459-0.227,0.83-0.355,1.186
	c-0.699,1.91-1.504,3.789-2.078,5.734c-0.377,1.273-1.071,1.91-2.321,2.211c-1.349,0.326-2.652,0.822-3.953,1.234
	c-0.647,2.691-1.271,5.287-1.896,7.881c-1.263,5.229-2.521,10.461-3.785,15.688c-0.103,0.422-0.322,0.83,0.074,1.391
	c0.387-0.051,0.866-0.033,1.289-0.189c0.594-0.217,1.172-0.512,1.707-0.852c3.366-2.143,6.717-4.314,10.086-6.451
	c0.569-0.361,0.95-0.799,1.149-1.447c0.271-0.875,0.608-1.729,0.912-2.594c0.646-1.84,1.284-3.68,1.926-5.516
	c-0.36-0.326-0.678-0.607-1.16-1.041h2.021c0.141,0.326,0.182,0.75,0.41,0.918c1.479,1.082,3.002,2.111,4.518,3.146
	c0.332,0.229,0.67,0.238,0.982-0.229c-0.484-1.293-0.965-2.643-1.51-3.959c-0.101-0.24-0.437-0.457-0.705-0.537
	c-0.531-0.158-1.103-0.188-1.642-0.324c-0.215-0.055-0.392-0.266-0.735-0.518c1.051-0.34,1.838,0.186,2.629,0.098
	c0.912-0.105,1.637,0.475,2.5,0.539c0.832,0.061,1.649,0.27,2.477,0.416c0.861,0.154,1.723,0.328,2.588,0.463
	c0.811,0.125,1.6,0.469,2.469,0.311c0.123-0.385,0.232-0.723,0.34-1.061c0.32-1.027,0.428-2.205,1.019-3.039
	c0.614-0.871,1.663-1.461,2.588-2.08c0.67-0.449,0.929-0.961,0.94-1.77c0.06-3.475,0.185-6.941,0.293-10.41
	c0.015-0.439,0.062-0.877,0.125-1.312c0.092-0.654-0.037-1.234-0.36-1.83c-1.224-2.244-2.403-4.506-3.582-6.771
	c-0.175-0.332-0.5-0.645-0.293-1.18c0.164,0.035,0.397,0.018,0.481,0.121c0.197,0.244,0.33,0.543,0.479,0.824
	c1.133,2.154,2.26,4.312,3.402,6.461c0.293,0.549,0.531,1.162,1.16,1.449c1.733-2.336,3.53-6.758,4.176-10.27
	c-0.146-0.039-0.295-0.09-0.445-0.117c-1.994-0.395-3.992-0.762-5.98-1.174c-2.582-0.535-5.178-0.934-7.828-0.775
	c-0.688,0.041-1.334,0.152-1.965,0.439c-3.668,1.668-7.342,3.322-11.021,4.967c-0.533,0.234-0.938,0.559-1.262,1.045
	c-1.172,1.76-2.682,3.51-3.889,5.246c-0.603,0.863-3.166,7.227-3.396,8.588c-0.078,0.471-0.242,0.926-0.35,1.393
	c-0.23,1.031-0.455,2.066-0.711,3.234c1.146-0.369,2.131-0.674,3.11-1c2.062-0.689,1.61-0.199,2.429-2.367
	c0.688-1.828,1.353-3.666,2.047-5.492C340.34,374.886,340.35,374.429,341.125,374.5 M292.114,360.287
	c-1.435,1.217-2.837,2.387-4.207,3.592c-0.168,0.148-0.263,0.486-0.242,0.725c0.187,2.344,0.383,4.682,0.619,7.016
	c0.1,0.98,0.196,1.984,0.479,2.93c0.557,1.867,1.233,3.699,1.875,5.541c0.098,0.283,0.268,0.541,0.444,0.893
	c1.192-0.553,2.297-1.09,3.422-1.576c0.527-0.229,0.787-0.604,0.957-1.127c0.746-2.311,1.527-4.607,2.271-6.918
	c0.131-0.408,0.225-0.865,0.18-1.283c-0.203-1.896-0.449-3.789-0.713-5.68c-0.033-0.244-0.201-0.535-0.396-0.684
	C295.271,362.57,293.723,361.458,292.114,360.287 M362.645,392.814c3.316,0.531,6.488,0.027,9.517,0.637
	c2.346-1.771,4.606-3.477,6.866-5.184c0.541-0.408,1.099-0.805,1.603-1.258c0.215-0.191,0.431-0.514,0.438-0.787
	c0.052-1.145,0.021-2.293,0.021-3.457c-0.277-0.057-0.428-0.102-0.579-0.117c-1.427-0.15-2.851-0.33-4.28-0.434
	c-0.748-0.051-1.547-0.109-2.25,0.09c-2.455,0.695-4.893,1.457-7.304,2.289c-1.19,0.412-2.147,1.145-2.433,2.543
	c-0.223,1.09-0.621,2.143-0.932,3.215C363.096,391.115,362.898,391.878,362.645,392.814 M380.271,401.423
	c-2.897-2.35-5.655-4.58-8.408-6.82c-0.356-0.291-0.733-0.432-1.198-0.441c-2.629-0.072-5.258-0.16-7.888-0.252
	c-1.274-0.045-2.547-0.129-3.821-0.164c-0.347-0.01-0.724,0.023-1.039,0.154c-1.146,0.465-2.272,0.965-3.396,1.479
	c-0.539,0.248-1.064,0.537-1.345,1.107c0.195,0.586,0.685,0.648,1.146,0.762c2.556,0.609,5.104,1.24,7.669,1.818
	c0.605,0.139,1.002,0.4,1.227,0.98c0.188,0.475,0.438,0.922,0.66,1.377H380.271L380.271,401.423z M244.654,406.158
	c0.248,0.047,0.328,0.084,0.402,0.072c3.023-0.486,6.047-0.986,9.07-1.463c0.74-0.115,1.164-0.492,1.502-1.17
	c1.035-2.064,2.156-4.088,3.238-6.131c0.334-0.629,0.654-1.266,1.045-2.021c-0.479-0.291-0.875-0.668-1.338-0.785
	c-1.693-0.432-3.41-0.773-5.172-1.162c-0.896,1-1.771,1.977-2.644,2.955c-1.885,2.115-3.771,4.223-5.639,6.35
	c-0.222,0.252-0.422,0.605-0.449,0.928C244.611,404.519,244.654,405.312,244.654,406.158 M341.575,355.978
	c-1.531,0-2.957,0.012-4.384-0.004c-0.756-0.006-1.146,0.42-1.428,1.057c-0.977,2.182-1.953,4.359-2.963,6.525
	c-0.283,0.617-0.336,1.203-0.145,1.85c0.535,1.834,1.045,3.676,1.576,5.51c0.062,0.205,0.203,0.387,0.43,0.805
	c0.148-0.273,0.211-0.426,0.305-0.553c1.832-2.461,3.619-4.957,5.523-7.361c0.818-1.037,1.188-2.08,1.104-3.389
	C341.504,358.955,341.575,357.484,341.575,355.978 M331.079,383.421c0.209-0.381,0.317-0.508,0.354-0.654
	c0.801-3.326,1.602-6.654,2.366-9.99c0.076-0.324-0.012-0.707-0.104-1.043c-0.62-2.266-1.312-4.514-1.881-6.789
	c-0.252-1.01-0.694-1.662-1.866-1.775c-1.044,2.004-2.095,4.057-3.185,6.088c-0.215,0.396-0.055,0.695,0.049,1.021
	c1.263,3.982,2.527,7.967,3.799,11.945C330.717,382.554,330.863,382.873,331.079,383.421 M315.822,356.822
	c0.125,0.66,0.265,1.162,0.306,1.672c0.084,1.02,0.601,1.75,1.34,2.428c2.441,2.24,4.843,4.527,7.255,6.797
	c0.948,0.896,1.264,0.867,2.067-0.178c0.073-0.096,0.146-0.193,0.203-0.297c0.768-1.441,1.532-2.883,2.338-4.402
	c-0.433-0.203-0.781-0.379-1.142-0.531c-1.25-0.525-2.496-1.062-3.756-1.562c-0.625-0.248-1.123-0.59-1.354-1.246
	c-0.188-0.535-0.586-0.816-1.123-0.963C319.958,357.988,317.963,357.421,315.822,356.822 M268.76,403.134
	c-0.064-0.111-0.088-0.195-0.145-0.244c-1.523-1.287-3.043-2.58-4.58-3.852c-0.521-0.43-1.064-0.842-1.639-1.203
	c-0.496-0.311-1.021-0.623-1.689-0.51c-0.709,1.014-1.463,1.98-2.098,3.027c-0.648,1.074-1.182,2.225-1.859,3.521
	C260.891,403.623,264.814,403.38,268.76,403.134 M282.208,356.222c-0.088,0.004-0.174,0.01-0.263,0.014
	c-0.081,2.307-0.157,4.613-0.25,6.922c-0.022,0.566,0.265,0.979,0.582,1.398c1.369,1.816,2.726,3.643,4.099,5.455
	c0.254,0.338,0.558,0.643,0.856,0.984c0.109-0.17,0.189-0.234,0.187-0.293c-0.17-2.146-0.346-4.287-0.535-6.428
	c-0.018-0.189-0.129-0.375-0.229-0.549C285.172,361.224,283.689,358.724,282.208,356.222 M341.674,401.169
	c2.578-1.65,5.008-3.209,7.525-4.824c-1.596-1.09-3.088-2.109-4.686-3.203C343.549,395.873,342.641,398.441,341.674,401.169
	 M241.387,408.937c0.438,0.521,0.963,0.711,1.6,0.701c1.354-0.018,2.705-0.018,4.06,0.002c0.539,0.006,0.998-0.135,1.449-0.438
	c1.387-0.928,2.799-1.82,4.194-2.734c0.199-0.131,0.369-0.309,0.664-0.557c-0.299,0-0.418-0.02-0.53,0.002
	c-2.037,0.326-4.072,0.676-6.113,0.977C244.805,407.171,242.958,407.576,241.387,408.937 M357.221,392.876
	c-0.01-0.068-0.02-0.137-0.027-0.207c-2.401-0.443-4.809-0.885-7.368-1.355c0.536,1.438,1.028,2.75,1.557,4.152
	C353.4,394.57,355.311,393.722,357.221,392.876 M314.202,361.609c-1.177-0.441-6.755-1.053-7.65-0.846v2.158
	c0.146,0.072,0.216,0.137,0.283,0.137c1.625-0.035,3.252-0.131,4.875-0.104C312.834,362.974,313.506,362.367,314.202,361.609
	 M381.027,377.326c-2.067,0.938-4.95,2.807-5.407,3.5c0.961,0.369,4.332,0.619,5.407,0.383V377.326z M335.286,356.988
	c-3.39,2.221-3.843,2.738-4.797,5.441c0.59,0.328,1.188,0.662,1.848,1.029C333.277,361.39,334.229,359.304,335.286,356.988
	 M359.777,392.806h2.076c0.586-1.98,1.164-3.941,1.742-5.904c-0.873,0.387-1.58,0.883-2.271,1.4
	c-0.152,0.115-0.301,0.291-0.354,0.467C360.577,390.054,360.208,391.347,359.777,392.806 M292.654,385.953
	c0.076,0.016,0.15,0.033,0.226,0.049c0.644-1.936,1.285-3.875,1.981-5.979c-1.311,0.645-2.52,1.025-3.604,1.799
	C291.743,383.253,292.2,384.603,292.654,385.953 M253.417,392.769c1.321,0.229,2.56,0.662,3.931,0.592
	c-1.64-1.371-3.277-2.742-4.916-4.113c-0.052,0.043-0.103,0.088-0.15,0.131C252.654,390.494,253.027,391.611,253.417,392.769
	 M341.562,352.453c-1.481,1.061-2.764,1.979-4.199,3.008c1.267,0,2.332,0.018,3.396-0.008c0.609-0.016,0.763-0.168,0.798-0.789
	C341.592,354,341.562,353.33,341.562,352.453 M238.514,407.205c0.553,0.361,1.006,0.689,1.492,0.955
	c0.223,0.121,0.566,0.23,0.764,0.143c0.693-0.312,1.385-0.664,2.133-1.26c-0.711-0.188-1.225-0.271-1.694-0.459
	C240.193,406.181,239.346,406.406,238.514,407.205 M243.5,404.14c-0.807,0.48-1.482,0.885-2.428,1.441
	c0.986,0.244,1.682,0.414,2.428,0.598V404.14z M238.497,405.882c-0.981-0.256-1.888-0.492-2.791-0.727
	c0.334,0.451,0.739,0.744,1.166,1.008C237.568,406.597,237.573,406.589,238.497,405.882"/>
<polygon fill="#332C2A" points="365.814,405.597 365.768,405.56 365.801,405.609 "/>
<path fill="#148E93" d="M392,364.238c1.463,0.402,2.787,0.623,3.979,1.139c1.618,0.701,2.024,1.586,1.688,3.301
	c-0.369,1.869-1.316,3.559-3.123,4.172c-1.907,0.65-3.846,0.076-5.42-1.252c-0.258-0.219-0.332-0.842-0.254-1.229
	c0.137-0.684,0.457-1.326,0.834-2.352c-1.076,0.418-1.789,0.709-2.513,0.975c-0.823,0.303-1.301,0.1-1.629-0.824
	c-0.383-1.084-0.969-2.113-1.567-3.105c-0.84-1.393-0.863-2.605,0.097-3.922c0.997-1.361,2.249-2.395,3.864-2.977
	c1.076-0.387,2.103-0.322,2.636,0.727c0.604,1.189,1.002,2.492,1.383,3.777C392.129,363.181,392,363.779,392,364.238"/>
<path fill="#005D77" d="M391.217,411.07c0.406-1.418,0.75-2.803,1.213-4.143c0.271-0.785,0.838-0.986,1.732-0.744
	c1.029,0.281,2.139,0.318,3.217,0.389c1.537,0.096,2.271,0.754,2.42,2.283c0.019,0.158,0.041,0.322,0.031,0.48
	c-0.213,3.178-0.947,5.209-4.965,4.736c-0.189,1.566-0.971,2.836-2.209,3.812c-1.477,1.168-2.75,1.375-4.164,0.229
	c-0.98-0.805-1.656-2.006-2.361-3.102c-0.189-0.295-0.135-0.918,0.055-1.252c0.465-0.83,0.97-1.688,1.646-2.34
	C389.26,410.048,389.768,410.064,391.217,411.07"/>
<path fill="#148E93" d="M317.4,397.441c-2.162,0.014-3.178-0.781-3.448-3.033c-0.63-5.232,2.25-7.682,7.336-7.467
	c0.795,0.031,1.174,0.393,1.258,1.27c0.127,1.348,0.396,2.693,0.724,4.01c0.416,1.666,0.057,3.029-1.447,3.812
	C320.458,396.742,317.439,397.541,317.4,397.441"/>
<path fill="#005D77" d="M335.359,349.88c-1.043-0.449-2.067-0.617-2.678-1.213c-1.139-1.111-2.227-0.875-3.231-0.135
	c-1.14,0.836-1.83,0.396-2.494-0.512c-0.929-1.27-1.756-2.725-1.074-4.242c0.781-1.74,2.334-2.732,4.328-2.826
	c0.272-0.012,0.666-0.041,0.81,0.115c0.973,1.061,2.276,0.852,3.494,1.096c0.864,0.172,1.715,0.695,2.438,1.24
	c1.156,0.875,1.223,1.797,0.521,3.068c-0.423,0.771-0.701,1.621-1.132,2.391C336.131,349.238,335.73,349.505,335.359,349.88"/>
<path fill="#005D77" d="M250.098,375.054c0.979-2.494,2.51-3.611,4.553-3.5c0.996,0.059,1.814,0.436,1.941,1.447
	c0.148,1.168,0.244,2.414-0.025,3.533c-0.135,0.561-1.069,1.117-1.75,1.312c-0.979,0.287-2.057,0.291-3.094,0.32
	c-0.309,0.01-0.699-0.238-0.916-0.488c-0.246-0.283-0.342-0.705-0.381-0.791c-1.514,0.064-2.854,0.229-4.182,0.156
	c-2.004-0.104-3.346-3.678-2.328-5.479c0.16-0.283,0.535-0.594,0.836-0.621c1.139-0.119,2.311-0.293,3.424-0.137
	c1.324,0.189,1.783,0.984,1.746,2.326c-0.014,0.482-0.029,0.963-0.025,1.445C249.896,374.689,249.982,374.794,250.098,375.054"/>
<path fill="#148E93" d="M355.536,331.537c0.024,2.377-2.563,5.52-4.609,5.83c-0.307,0.047-0.786-0.26-1.006-0.543
	c-0.799-1.047-1.469-2.195-2.291-3.227c-0.754-0.943-1.004-1.986-0.598-3.047c0.764-1.982,2.118-3.486,4.112-4.355
	c0.781-0.344,1.445-0.24,2.121,0.305C354.989,327.896,355.404,329.824,355.536,331.537"/>
<path fill="#005D77" d="M382.604,401.121c1.058-0.9,2.222-1.701,3.144-2.721c1.287-1.428,2.457-1.855,4.26-1.156
	c1.648,0.639,3.125,1.559,3.935,3.182c0.26,0.518,0.272,1.359,0.029,1.877c-1.302,2.744-5.082,4.004-7.808,2.693
	c-0.472-0.229-0.931-0.477-1.396-0.713C384.045,403.228,383.325,402.175,382.604,401.121"/>
<path fill="#005D77" d="M371.252,388.097c2.844-0.797,5.721,0.654,6.758,3.469c0.168,0.451,0.205,1.055,0.059,1.508
	c-0.633,1.938-1.959,3.299-3.832,4.09c-1.075,0.453-2.098,0.082-2.883-0.857c-0.922-1.104-1.938-2.129-2.817-3.264
	c-0.254-0.326-0.392-1.049-0.201-1.357c0.683-1.111,1.522-2.131,2.306-3.186l-0.037,0.004c0.252-0.166,0.502-0.332,0.752-0.5
	l-0.086,0.004L371.252,388.097z"/>
<path fill="#005D77" d="M360.689,350.503c-0.123-0.914-0.242-1.828-0.364-2.742c-0.203-1.508,0.319-2.568,1.772-3.004
	c1.131-0.338,2.359-0.543,3.531-0.498c1.895,0.072,2.668,0.881,2.838,2.781c0.162,1.834-0.205,3.693-1.682,4.824
	c-1.594,1.223-3.582,1.33-5.539,0.693C360.086,352.185,360.654,351.248,360.689,350.503"/>
<path fill="#72BBBE" d="M396.786,381.462c2.424-0.975,4.215-0.59,6.031,1.297c1.393,1.445,1.549,2.689,0.278,4.279
	c-2.922,3.664-6.227,2.902-8.688-0.508c-0.207-0.285-0.035-0.932,0.109-1.355c0.17-0.498,0.504-0.938,0.766-1.406
	c-0.006-0.002,0.008,0.072,0.008,0.072l-0.068,0.021c0.211-0.324,0.42-0.648,0.629-0.977l-0.018,0.037
	c0.093-0.133,0.182-0.268,0.271-0.398c0.149-0.23,0.303-0.457,0.452-0.688c0.091-0.135,0.179-0.27,0.267-0.404L396.786,381.462z"/>
<path fill="#005D77" d="M395.225,383.863l0.068-0.021c0,0-0.012-0.074-0.008-0.072c-2.037,0.951-4.021,0.832-5.961-0.293
	c-0.791-0.457-1.137-0.951-0.746-1.963c0.381-0.988,0.471-2.104,0.631-3.172c0.217-1.439,0.889-2.184,2.338-2.285
	c0.75-0.051,1.539,0,2.271,0.172c2.705,0.641,3.428,1.805,2.95,4.553c-0.036,0.221,0.011,0.457,0.021,0.684l0.039-0.027
	c-0.088,0.137-0.176,0.271-0.266,0.404c-0.15,0.23-0.304,0.455-0.453,0.686c-0.093,0.133-0.183,0.268-0.271,0.4l0.02-0.037
	L395.225,383.863z"/>
<path fill="#005D77" d="M269.186,385.66c-1.717-0.143-3.102-0.773-4.25-1.943c-0.518-0.527-0.602-0.975-0.219-1.688
	c0.523-0.979,0.867-2.061,1.213-3.123c0.471-1.451,1.275-2.059,2.791-1.809c0.775,0.129,1.566,0.385,2.266,0.746
	c1.789,0.928,2.353,1.92,2.142,3.484c-0.235,1.758-1.916,3.938-3.312,4.279C269.583,385.666,269.336,385.65,269.186,385.66"/>
<path fill="#005D77" d="M321.363,385.878c-1.526-0.225-3.092-0.174-3.889-1.682c-0.983-1.865-1.024-3.785,0.113-5.621
	c0.188-0.311,0.604-0.533,0.959-0.666c1.541-0.568,3.082-0.482,4.582,0.158c1.225,0.52,1.645,1.406,1.406,2.719
	c-0.223,1.219-0.342,2.457-0.609,3.664c-0.086,0.391-0.436,0.861-0.787,1.023C322.572,385.738,321.902,385.769,321.363,385.878"/>
<path fill="#148E93" d="M372.034,357.558c-0.218-0.221-0.478-0.416-0.644-0.67c-0.652-1.006-1.234-2.061-1.924-3.045
	c-0.863-1.24-0.857-2.307,0.253-3.326c0.585-0.533,1.259-1.033,1.979-1.344c1.354-0.58,2.73-0.982,3.986,0.369
	c1.221,1.314,2.032,3.951,1.387,5.238c-0.26,0.516-0.781,0.895-1.174,1.35c-0.252,0.291-0.486,0.596-0.729,0.896
	C374.127,357.203,373.081,357.38,372.034,357.558"/>
<path fill="#72BBBE" d="M358.682,395.886c0.197-0.98,0.271-1.668,0.48-2.309c0.604-1.844,0.949-1.998,2.844-1.73
	c0.867,0.123,1.76,0.08,2.643,0.094c1.486,0.021,2.23,0.676,2.408,2.129c0.234,1.938-0.678,4.367-1.861,4.955
	c-1.543,0.764-4.188,0.309-5.594-1.152C359.077,397.326,358.918,396.425,358.682,395.886"/>
<path fill="#005D77" d="M372.609,410.908c0.191,0.271,0.289,0.604,0.232,0.932c-0.443,2.666-3.719,4.57-5.805,3.551
	c-1.465-0.717-2.35-1.938-2.768-3.473c-0.113-0.42-0.062-1.039,0.18-1.369c0.678-0.922,1.428-1.814,2.279-2.578
	c0.896-0.803,1.774-0.787,2.68,0.25c0.611,0.701,1.604,1.061,2.328,1.684C372.098,410.208,372.387,410.597,372.609,410.908"/>
<path fill="#148E93" d="M291.797,372.033c0.162,0,0.324-0.021,0.48,0.004c1.562,0.24,3.041,0.75,3.729,2.281
	c0.539,1.199-0.592,3.879-1.83,4.717c-0.262,0.178-0.674,0.246-0.998,0.203c-1.188-0.152-2.363-0.408-3.553-0.561
	c-1.52-0.193-2.123-0.928-1.924-2.439C288.032,373.703,289.659,372.031,291.797,372.033"/>
<path fill="#005D77" d="M380.941,378.126c0,2.281-0.729,2.984-2.762,3.039c-0.881,0.023-1.787,0.066-2.621,0.307
	c-0.819,0.238-1.199-0.078-1.545-0.699c-0.719-1.283-1.062-2.68-0.604-4.066c0.225-0.684,0.864-1.34,1.485-1.758
	c1.373-0.924,3.021-1.295,4.463-0.432C380.682,375.314,380.898,376.888,380.941,378.126"/>
<path fill="#148E93" d="M360.047,365.406c-1.133-0.166-2.66-0.146-3.4-1.633c-0.836-1.684-0.871-3.436,0.17-5.068
	c0.23-0.365,0.729-0.723,1.144-0.781c0.979-0.135,2.021-0.26,2.976-0.078c2.271,0.434,2.834,1.521,2.174,3.732
	c-0.156,0.537-0.297,1.09-0.353,1.645C362.573,365.103,362.273,365.388,360.047,365.406"/>
<path fill="#148E93" d="M298.312,342.261c0.547-0.15,1.133-0.062,1.621,0.225c0.373,0.221,0.791,0.49,1.092,0.857
	c0.646,0.787,1.162,1.738,1.502,2.701c0.363,1.029-0.127,1.861-1.104,2.402c-1.051,0.584-2.062,1.232-3.117,1.805
	c-0.27,0.143-0.699,0.203-0.969,0.092c-1.553-0.646-3.062-3.244-2.744-4.625C294.918,344.294,296.553,342.75,298.312,342.261"/>
<path fill="#005D77" d="M257.366,380.482c-0.812-2.629,0.159-4.924,2.62-5.797c0.658-0.232,1.582-0.127,2.238,0.16
	c0.691,0.305,1.305,0.938,1.785,1.555c1.35,1.725,1.471,3.309-0.842,4.492c-0.848,0.438-1.469,1.311-2.191,1.982
	C259.309,382.777,258.395,381.542,257.366,380.482"/>
<path fill="#148E93" d="M257.366,380.482c1.028,1.061,1.942,2.295,3.608,2.395c1.344,1.85,0.029,3.592-1.604,4.732
	c-1.062,0.738-2.283,1.309-3.598,0.596c-1.635-0.889-2.773-2.23-2.98-4.123c-0.1-0.918,0.566-1.502,1.402-1.902
	C255.277,381.662,256.312,381.05,257.366,380.482"/>
<path fill="#148E93" d="M264.941,399.417c-2.438,0.016-4.692-2.469-4.407-4.666c0.043-0.336,0.442-0.715,0.774-0.906
	c0.861-0.5,1.803-0.863,2.672-1.357c1.203-0.686,2.191-0.617,3.144,0.404c0.459,0.494,0.894,1.057,1.176,1.662
	c1.173,2.494,0.648,3.871-2.28,4.723C265.6,399.396,265.145,399.394,264.941,399.417"/>
<path fill="#005D77" d="M372.034,357.558c1.047-0.178,2.094-0.354,3.139-0.531c0.222,0.094,0.453,0.166,0.658,0.285
	c1.653,0.961,2.856,2.912,2.599,4.191c-0.271,1.318-2.347,3.064-4.003,3.338c-0.979,0.16-1.709-0.203-2.221-1.072
	c-0.627-1.066-1.332-2.092-1.929-3.176c-0.153-0.277-0.166-0.818,0.009-1.059C370.801,358.828,371.441,358.21,372.034,357.558"/>
<path fill="#005D77" d="M277.917,389.748c-2.979,0.006-4.125-1.465-3.463-4.133c0.729-2.932,3.633-4.33,6.354-3.01
	c0.289,0.141,0.539,0.633,0.564,0.98c0.072,0.873-0.08,1.766,0.018,2.633c0.23,2.084-0.346,2.973-2.402,3.408
	C278.561,389.718,278.114,389.726,277.917,389.748"/>
<path fill="#72BBBE" d="M339.641,387.341c-0.242,0.053-0.533,0.039-0.719,0.17c-1.672,1.188-4.406,1.057-5.854-0.375
	c-0.233-0.23-0.327-0.771-0.256-1.119c0.222-1.053,0.586-2.07,0.838-3.117c0.304-1.25,0.976-1.914,2.23-1.947
	c0.714-0.02,1.455,0.031,2.143,0.213c2.636,0.705,3.33,2.42,2.054,4.83c-0.222,0.416-0.304,0.906-0.449,1.363
	C339.625,387.357,339.641,387.341,339.641,387.341"/>
<path fill="#005D77" d="M301.42,358.449c-1.33-0.203-2.662-0.406-3.229-1.9c-0.654-1.729-0.566-3.395,0.498-4.939
	c0.188-0.273,0.541-0.484,0.86-0.607c1.951-0.736,4.354-0.059,5.65,1.557c-0.13,0.693-0.261,1.389-0.39,2.082
	c-0.113,0.334-0.229,0.67-0.34,1.006c-0.021,0.119-0.047,0.238-0.07,0.357c-0.123,0.703-0.243,1.406-0.366,2.109
	c-0.158,0.047-0.316,0.096-0.478,0.145c-0.209,0.051-0.416,0.104-0.623,0.154C302.434,358.419,301.926,358.433,301.42,358.449"/>
<path fill="#148E93" d="M274.583,341.343c0.115,0.301,0.237,0.6,0.342,0.902c0.591,1.74,0.402,2.037-1.35,2.314
	c-0.746,0.119-1.479,0.318-2.15,0.471c0.302,0.988,0.853,1.982,0.828,2.969c-0.021,0.947-0.637,1.879-1.01,2.865
	c-1.183-0.607-2.146-0.951-2.912-1.555c-0.457-0.355-0.817-1.105-0.845-1.697c-0.092-2.105,0.888-3.117,2.935-3.195
	c-0.276-0.711-0.618-1.385-0.803-2.098c-0.435-1.678,0.223-2.48,1.959-2.396c0.67,0.033,1.334,0.244,2,0.373
	C273.913,340.648,274.249,340.996,274.583,341.343"/>
<path fill="#005D77" d="M309.331,378.943c0.024,0.029,0.055,0.061,0.076,0.094c0.915,1.346,1.729,2.93,0.745,4.354
	c-1.088,1.578-3.021,1.686-4.834,1.395c-0.993-0.16-1.606-0.818-1.795-1.855c-0.207-1.137-0.514-2.258-0.67-3.4
	c-0.047-0.336,0.162-0.91,0.426-1.049c0.771-0.4,1.627-0.639,2.449-0.939C307.131,377.488,308.447,377.664,309.331,378.943"/>
<path fill="#72BBBE" d="M313.329,365.884c0.098-0.43,0.211-1.061,0.385-1.674c0.263-0.918,0.765-1.363,1.851-1.227
	c0.893,0.107,1.828-0.107,2.74-0.227c1.381-0.172,2.146,0.334,2.452,1.674c0.021,0.08,0.037,0.158,0.048,0.236
	c0.202,1.662,0.112,3.385-1.339,4.369c-1.577,1.068-3.387,0.766-5.026-0.18C313.354,368.236,313.424,367.13,313.329,365.884"/>
<path fill="#005D77" d="M346.674,391.423c0.324,2.205-0.031,2.635-2.322,2.797c-2.819,0.201-4.502-1.191-4.996-4.141
	c-0.014-0.105-0.024-0.211-0.041-0.316c0.015-0.301,0.021-0.604,0.035-0.9c0.025-0.152,0.053-0.307,0.08-0.457
	c0.068-0.355,0.139-0.709,0.209-1.062c0.002,0-0.014,0.02-0.012,0.02c1.877-0.867,3.781-1.223,5.75-0.293
	c0.072,0.512,0.076,1.045,0.23,1.525C345.92,389.55,346.314,390.482,346.674,391.423"/>
<path fill="#148E93" d="M238.254,401.478c1.551,0.049,3.789,2.383,3.771,3.812c-0.002,0.238-0.187,0.506-0.351,0.709
	c-0.704,0.869-1.461,1.699-2.149,2.582c-0.816,1.049-1.719,1.293-2.818,0.57c-0.598-0.395-1.172-0.877-1.602-1.439
	c-0.828-1.09-1.383-2.258-0.547-3.66C235.452,402.56,236.732,401.734,238.254,401.478"/>
<path fill="#148E93" d="M288.754,390.099c-0.219,0.1-0.441,0.188-0.652,0.295c-1.08,0.561-2.186,1.219-3.375,0.381
	c-1.463-1.027-2.375-2.475-2.262-4.281c0.037-0.568,0.691-1.238,1.234-1.605c0.953-0.643,2.072-1.037,3.066-1.627
	c0.965-0.566,1.334,0.453,2.008,0.633C290.208,385.966,290.725,388.037,288.754,390.099"/>
<path fill="#005D77" d="M317.124,347.154c-0.188-0.027-0.67-0.078-1.144-0.164c-0.756-0.143-1.119-0.533-1.201-1.379
	c-0.098-1.029-0.444-2.035-0.702-3.047c-0.283-1.115,0.03-2.053,1.127-2.301c1.215-0.275,2.539-0.381,3.771-0.211
	c1.473,0.201,1.93,1.562,2.028,2.818C321.249,345.935,320.338,347.082,317.124,347.154"/>
<path fill="#72BBBE" d="M370.602,388.503l0.037-0.004c-0.336-0.076-0.688-0.111-1.004-0.236c-0.613-0.236-1.264-0.441-1.797-0.811
	c-0.787-0.543-1.527-1.174-2.203-1.855c-0.27-0.27-0.539-0.871-0.418-1.154c1.396-3.32,4.178-4.523,7.281-1.949
	c1.246,1.033,1.277,2.084,0.312,3.514c-0.486,0.719-1.031,1.4-1.554,2.094c-0.004-0.002,0.009-0.094,0.009-0.094l0.088-0.002
	C371.102,388.169,370.852,388.335,370.602,388.503"/>
<path fill="#72BBBE" d="M376.682,413.066c1.459,0.174,2.707,0.199,3.342,1.518c0.74,1.537,0.89,3.094,0.023,4.621
	c-0.178,0.311-0.6,0.654-0.932,0.68c-1.254,0.104-2.547,0.252-3.764,0.041c-1.226-0.211-1.601-1.125-1.433-2.389
	c0.131-0.99,0.14-2,0.315-2.98c0.072-0.395,0.375-0.895,0.714-1.059C375.551,413.218,376.254,413.164,376.682,413.066"/>
<path fill="#148E93" d="M346.674,391.423c-0.359-0.939-0.754-1.873-1.062-2.83c-0.153-0.482-0.159-1.018-0.231-1.527
	c0.254-0.23,0.562-0.428,0.748-0.701c1.263-1.871,5.08-1.801,6.147,0.209c0.287,0.539,0.166,1.383,0.021,2.041
	c-0.205,0.928-0.537,1.848-0.955,2.701c-0.202,0.41-0.764,0.979-1.096,0.936C349.038,392.097,347.861,391.718,346.674,391.423"/>
<path fill="#148E93" d="M320.521,349.474c2.006,0.074,4.017,1.545,4.418,2.988c0.326,1.17-0.674,3.572-1.891,4.338
	c-0.262,0.166-0.744,0.148-1.062,0.033c-0.938-0.342-1.828-0.807-2.764-1.166c-1.205-0.461-1.8-1.166-1.429-2.395
	c0.347-1.146,1.026-2.219,1.69-3.232C319.727,349.675,320.348,349.562,320.521,349.474"/>
<path fill="#005D77" d="M345.413,373.988c-0.011,2.164-2.567,4.105-4.72,3.549c-0.252-0.064-0.52-0.346-0.639-0.596
	c-0.451-0.932-0.816-1.906-1.272-2.834c-0.554-1.129-0.404-1.965,0.579-2.766c0.188-0.148,0.384-0.297,0.591-0.414
	c1.188-0.666,2.512-1.25,3.766-0.578C345.053,371.068,345.422,372.503,345.413,373.988"/>
<path fill="#005D77" d="M310.26,352.042c0.191-0.062,0.385-0.119,0.572-0.186c3.461-1.271,4.926,0.889,5.414,3.648
	c0.111,0.648-0.119,1.025-0.766,1.277c-0.736,0.287-1.455,0.666-2.113,1.105c-1.598,1.062-2.549,0.945-3.65-0.602
	c-0.346-0.484-0.574-1.049-0.857-1.578C308.293,354.095,308.887,352.919,310.26,352.042"/>
<path fill="#005D77" d="M332.909,337.734c-0.013-1.693,0.872-3.451,1.899-3.777c1.188-0.377,3.861,0.66,4.515,1.971
	c0.303,0.611,0.229,1.533,0.034,2.232c-0.262,0.949-0.778,1.834-1.239,2.717c-0.144,0.273-0.435,0.605-0.701,0.65
	C335.327,341.888,332.924,339.837,332.909,337.734"/>
<path fill="#72BBBE" d="M244.312,416.035c-1.701-0.025-3.793-1.219-4.096-2.338c-0.365-1.367,0.66-3.434,2.193-4.404
	c1.297-0.824,4.543,0.137,5.125,1.537c0.078,0.188,0.041,0.467-0.031,0.674c-0.371,1.059-0.771,2.105-1.154,3.156
	C245.999,415.613,245.301,416.039,244.312,416.035"/>
<path fill="#148E93" d="M291.667,356.72c0.015,1.607-0.246,1.857-1.86,2.041c-0.675,0.078-1.326,0.324-1.994,0.463
	c-0.388,0.08-0.814,0.221-1.176,0.129c-1.527-0.385-1.812-1.701-2.033-2.98c-0.287-1.668,0.139-2.701,1.201-3.234
	C288.743,351.667,291.639,353.435,291.667,356.72"/>
<path fill="#72BBBE" d="M214.836,390.091c-2.113,1.521-4.836,0.789-5.955-1.598c-0.707-1.508,0.965-4.74,2.637-4.906
	c0.547-0.055,1.221,0.287,1.697,0.637c0.834,0.609,1.598,1.332,2.318,2.074c0.264,0.273,0.398,0.73,0.463,1.123
	c0.064,0.418-0.025,0.861-0.047,1.293C215.579,389.173,215.208,389.632,214.836,390.091"/>
<path fill="#148E93" d="M382.604,401.121c0.724,1.053,1.441,2.105,2.164,3.162c0.301,2.322-2.276,4.799-4.545,4.365
	c-1.59-0.307-3.334-3.514-2.658-4.988c0.187-0.402,0.576-0.797,0.974-1c1.137-0.578,2.319-1.066,3.498-1.566
	C382.189,401.027,382.411,401.107,382.604,401.121"/>
<path fill="#72BBBE" d="M305.116,361.39c-0.209,3.689-2.837,4.566-5.582,3.793c-0.918-0.256-1.455-0.922-1.361-1.877
	c0.093-0.938,0.229-1.914,0.578-2.781c0.562-1.396,1.453-1.721,2.91-1.324c0.618,0.166,1.241,0.334,1.875,0.412
	C304.959,359.787,305.17,359.996,305.116,361.39"/>
<path fill="#005D77" d="M274.993,406.957c-0.39,1.834-1.261,3.045-2.729,3.75c-1.199,0.572-2.211-0.027-3.082-0.781
	c-2.225-1.926-1.654-5.027,1.104-6.074c0.282-0.105,0.728-0.061,0.989,0.1c0.933,0.545,1.854,1.121,2.709,1.777
	C274.426,406.07,274.715,406.609,274.993,406.957"/>
<path fill="#72BBBE" d="M309.331,378.943c-0.884-1.279-2.199-1.455-3.604-1.406c0.34-0.934,0.558-1.936,1.037-2.783
	c1.312-2.311,3.65-2.402,5.562-1.891c1.482,0.395,1.814,1.168,1.346,2.648C312.973,377.726,311.422,378.951,309.331,378.943"/>
<path fill="#005D77" d="M352.654,406.365c-0.329,0.156-0.702,0.203-1.062,0.127c-0.576-0.119-1.031-0.201-1.463-0.357
	c-2.088-0.762-2.416-1.76-1.287-3.668c0.307-0.514,0.625-1.057,0.758-1.629c0.221-0.957,0.808-1.227,1.672-1.145
	c1.357,0.123,2.808,0.398,3.379,1.717c0.642,1.477,0.287,3.047-0.869,4.246C353.471,405.974,353.042,406.181,352.654,406.365"/>
<path fill="#005D77" d="M274.583,341.343c-0.334-0.348-0.668-0.695-1.004-1.045c0.092-0.346,0.135-0.713,0.284-1.033
	c0.515-1.105,1.496-1.707,2.339-1.477c1.127,0.309,1.952,1.436,1.903,2.6c-0.008,0.146-0.021,0.291,0.084,0.611
	c0.832-2.008,2.185-2.539,4.05-1.699c1.422,1.494,1.452,1.631,0.719,3.082c-0.242,0.262-0.543,0.492-0.717,0.793
	c-0.382,0.664-0.646,1.439-1.677,1.053c-1.073-0.4-2.104-0.844-2.312-2.162c-0.047-0.301-0.061-0.602-0.086-0.869
	c-0.129-0.031-0.191-0.062-0.203-0.047C276.913,342.515,275.771,342.353,274.583,341.343"/>
<path fill="#005D77" d="M288.754,390.099c1.971-2.062,1.451-4.133,0.021-6.207c0.666-0.887,1.328-1.133,2.293-0.283
	c0.582,0.512,1.396,0.773,2.134,1.09c1.42,0.607,1.899,1.432,1.608,2.949c-0.082,0.432-0.215,0.859-0.385,1.268
	C293.202,391.896,291.102,392.332,288.754,390.099"/>
<path fill="#005D77" d="M230.682,425.447c0.642,0.859,1.383,1.668,1.887,2.604c0.369,0.689,0.767,1.654,0.552,2.299
	c-0.392,1.168-1.14,2.26-1.899,3.25c-0.685,0.893-1.613,0.715-2.228-0.129c-0.556-0.762-0.912-1.666-1.354-2.51
	C227.549,428.125,228.604,426.216,230.682,425.447"/>
<path fill="#005D77" d="M255.279,358.488c0.361,1.34,0.041,2.098-1.354,2.844c-0.592,0.316-1.272,0.502-1.938,0.629
	c-0.301,0.059-0.725-0.078-0.932-0.303c-0.777-0.84-1.477-1.752-2.195-2.646c-0.479-0.592-0.387-1.479,0.224-1.936
	c0.713-0.537,1.515-0.961,2.306-1.398c0.452-0.25,1.006-0.223,1.432,0.072C253.654,356.333,254.98,357.373,255.279,358.488"/>
<path fill="#72BBBE" d="M306.577,343.291c0.086-0.973,0.161-2.064,1.411-2.574c1.357-0.553,2.705-0.557,3.938,0.227
	c1.014,0.641,1.201,3.695,0.342,4.479c-0.184,0.166-0.504,0.199-0.771,0.25c-0.593,0.113-1.199,0.154-1.779,0.307
	C307.432,346.583,306.521,345.853,306.577,343.291"/>
<path fill="#005D77" d="M275.383,378.853c0.023-2.047,0.895-3.127,2.496-3.1c2.014,0.035,3.549,1.455,3.521,3.301
	c-0.008,0.516-0.104,1.039-0.237,1.539c-0.246,0.912-0.688,1.51-1.804,1.057c-0.426-0.176-0.942-0.166-1.42-0.18
	C275.98,381.419,275.359,380.796,275.383,378.853"/>
<path fill="#005D77" d="M267.174,355.667c0.025-1.549,1.516-3.527,2.668-3.656c1.354-0.152,3.34,1.199,3.766,2.562
	c0.354,1.129-0.959,3.578-2.09,3.9c-0.576,0.166-4.146-1.861-4.293-2.445C267.186,355.875,267.182,355.712,267.174,355.667"/>
<path fill="#148E93" d="M244.918,393.332c1.406,0.148,3.34,2.178,3.229,3.479c-0.006,0.08,0.008,0.199-0.037,0.232
	c-1.176,0.857-2.271,1.898-3.567,2.492c-0.916,0.42-2.422-1.072-3.004-2.518c-0.49-1.221,0.049-2.072,0.983-2.67
	C243.243,393.89,244.113,393.662,244.918,393.332"/>
<path fill="#005D77" d="M248.081,431.996c-0.91-0.459-1.886-0.828-2.703-1.416c-0.371-0.268-0.64-0.99-0.586-1.465
	c0.117-1.064,0.435-2.111,0.748-3.143c0.062-0.205,0.483-0.43,0.733-0.424c3.097,0.064,4.656,2.105,3.754,5.047
	C249.764,431.453,249.168,431.945,248.081,431.996"/>
<path fill="#005D77" d="M223.702,373.5c-0.593,0.002-1.156-0.26-1.562-0.693c-0.47-0.498-1-1.068-1.404-1.723
	c-0.562-0.902-0.264-1.844,0.738-2.322c0.78-0.373,1.647-0.773,2.479-0.77c0.631,0.004,1.422,0.492,1.848,1.008
	c0.57,0.688,0.889,1.6,1.242,2.447c0.092,0.223,0.031,0.65-0.131,0.812C226.064,373.097,225.062,373.494,223.702,373.5"/>
<path fill="#005D77" d="M212.545,402.203c2.062,0.01,2.916,0.648,3.533,2.387c0.494,1.395,0.287,1.811-1.084,2.229
	c-0.346,0.104-0.691,0.223-1.002,0.395c-0.906,0.508-1.814,0.771-2.633-0.094c-0.945-1-1.654-2.232-1.191-3.586
	C210.557,402.394,211.773,402.212,212.545,402.203"/>
<path fill="#148E93" d="M218.984,410.634c0.138-1.754,0.422-3.053,1.605-3.682c0.965-0.51,1.93,0.072,2.75,0.727
	c1.133,0.896,1.57,2.021,1.09,3.4c-0.207,0.596-0.514,1.178-0.885,1.684c-0.15,0.209-0.645,0.355-0.896,0.273
	c-0.869-0.283-1.771-0.572-2.526-1.066C219.562,411.601,219.211,410.914,218.984,410.634"/>
<path fill="#148E93" d="M218.872,413.117c0.26,0.076,0.856,0.188,1.397,0.428c1.377,0.607,1.482,0.984,0.812,2.314
	c-0.164,0.318-0.315,0.652-0.399,1.002c-0.248,1.021-0.726,1.828-1.904,1.811c-1.377-0.018-2.719-0.375-3.418-1.641
	C214.57,415.611,216.723,413.035,218.872,413.117"/>
<path fill="#72BBBE" d="M238.613,421.001c0.572,0.168,1.171,0.277,1.712,0.516c1.397,0.615,1.5,0.975,0.823,2.312
	c-0.178,0.354-0.34,0.729-0.438,1.115c-0.234,0.938-0.707,1.664-1.748,1.693c-1.383,0.043-2.803-0.289-3.424-1.547
	c-0.307-0.619,0.098-1.773,0.502-2.512C236.543,421.683,237.387,420.976,238.613,421.001"/>
<path fill="#148E93" d="M214.836,390.091c0.371-0.459,0.742-0.918,1.113-1.377c2.684-1.117,4.84,0.035,5.152,2.742
	c0.096,0.805-0.104,1.305-1.021,1.41c-0.463,0.051-0.916,0.287-1.351,0.49c-1.492,0.689-2.312,0.52-3.104-0.896
	C215.229,391.748,215.09,390.886,214.836,390.091"/>
<path fill="#148E93" d="M355.727,342.609c-0.25,0.297-0.994,0.395-1.432,0.277c-0.916-0.246-1.783-0.684-2.658-1.072
	c-0.154-0.068-0.307-0.26-0.357-0.424c-0.305-0.959,0.894-3.064,1.945-3.467c1.34-0.51,3.438,0.01,3.937,0.994
	c0.104,0.205,0.108,0.459,0.159,0.691C357.407,339.673,356.441,341.753,355.727,342.609"/>
<path fill="#005D77" d="M264.088,363.029c-0.57,0.738-1.023,1.289-1.729,1.828c-0.553,0.422-1.449,0.68-2.137,0.586
	c-1.476-0.207-2.697-1.439-2.597-2.289c0.125-1.061,1.808-2.408,3.117-2.498C262.004,360.57,263.534,361.839,264.088,363.029"/>
<path fill="#148E93" d="M227.096,386.333c0.148,0.428,0.146,0.895-0.029,1.311c-0.436,1.041-1.395,2.148-2.268,2.396
	c-0.199,0.057-0.551,0.059-0.646-0.061c-0.641-0.814-1.359-1.607-1.807-2.529c-0.613-1.262,1.26-3.895,2.672-3.779
	c0.479,0.039,1.069,0.463,1.332,0.885C226.686,385.099,226.883,385.72,227.096,386.333"/>
<path fill="#148E93" d="M240.204,359.179c-0.007,1.742-1.431,3.432-2.765,3.611c-0.205,0.027-0.547-0.027-0.627-0.162
	c-1.246-0.654-1.516-1.709-1.682-2.645c-0.123-0.689,0.262-1.697,0.771-2.207c0.627-0.623,1.606-1.135,2.479-0.887
	c0.637,0.184,1.209,0.404,1.471,0.904C240.122,358.31,240.15,358.949,240.204,359.179"/>
<path fill="#148E93" d="M310.26,352.042c-1.373,0.877-1.967,2.053-1.4,3.672c-2.039,0.889-2.032,0.885-3.541-0.838
	c-0.11-0.129-0.332-0.16-0.502-0.238c0.129-0.693,0.261-1.389,0.39-2.084c0.41-0.424,0.771-0.922,1.242-1.256
	C307.84,350.318,308.803,350.531,310.26,352.042"/>
<path fill="#148E93" d="M230.682,425.447c-2.078,0.77-3.133,2.678-3.045,5.514c-1.275-0.465-2.062-1.83-2.074-3.543
	c-0.008-1.285,0.771-1.83,1.883-2.109c0.308-0.072,0.648-0.17,0.875-0.363C229.359,424.033,230.092,424.363,230.682,425.447"/>
<path fill="#005D77" d="M286.086,340.203c1.088-0.746,1.965-0.322,2.74,0.521c0.686,0.75,0.746,1.482-0.174,2.119
	c-0.062,0.045-0.121,0.104-0.188,0.148c-0.488,0.346-1.184,1.088-1.434,0.961c-0.729-0.369-1.275-1.088-1.895-1.67
	C285.456,341.589,285.77,340.896,286.086,340.203"/>
<path fill="#148E93" d="M286.086,340.203c-0.316,0.693-0.631,1.387-0.947,2.082c-0.729,0.033-1.453,0.064-2.182,0.098
	c0.732-1.451,0.703-1.588-0.721-3.082C284.068,337.707,285.262,337.988,286.086,340.203"/>
<path fill="#148E93" d="M301.42,358.449c0.506-0.016,1.014-0.027,1.518-0.041C302.432,358.421,301.926,358.433,301.42,358.449"/>
<path fill="#148E93" d="M339.43,388.404c-0.027,0.15-0.055,0.305-0.08,0.457C339.375,388.707,339.402,388.556,339.43,388.404"/>
<path fill="#148E93" d="M303.561,358.255c0.16-0.049,0.318-0.098,0.478-0.146C303.877,358.158,303.719,358.207,303.561,358.255"/>
<path fill="#148E93" d="M304.404,356c0.021-0.119,0.048-0.238,0.07-0.357C304.452,355.761,304.428,355.88,304.404,356"/>
<path fill="#148E93" d="M339.314,389.763c0.015,0.105,0.025,0.211,0.041,0.316c-0.028-0.07-0.063-0.139-0.082-0.211
	C339.268,389.837,339.301,389.798,339.314,389.763"/>
<path fill="#010101" d="M370.602,388.503c0.25-0.168,0.5-0.334,0.752-0.5C371.102,388.169,370.852,388.335,370.602,388.503"/>
<path fill="#010101" d="M395.225,383.863c0.209-0.324,0.42-0.648,0.629-0.975C395.645,383.212,395.434,383.539,395.225,383.863"/>
<path fill="#010101" d="M395.836,382.927c0.092-0.135,0.182-0.27,0.273-0.402C396.018,382.658,395.928,382.792,395.836,382.927"/>
<path fill="#010101" d="M396.562,381.841c0.089-0.135,0.177-0.27,0.265-0.406C396.739,381.572,396.651,381.707,396.562,381.841"/>
<path fill="#005D77" d="M233.456,365.437c1.239,0.041,2.017,0.613,2.471,1.686c0.64,1.502,0.773,3.104-0.198,4.396
	c-0.965,1.283-2.554,1.697-4.15,1.496c-0.408-0.051-0.879-0.605-1.09-1.041c-0.354-0.734-0.471-1.582-0.777-2.344
	c-0.674-1.67-0.361-2.668,1.281-3.43C231.764,365.841,232.631,365.685,233.456,365.437"/>
</svg>
