<?xml version="1.0" encoding="utf-8"?>
<!-- Generator: Adobe Illustrator 22.1.0, SVG Export Plug-In . SVG Version: 6.00 Build 0)  -->
<svg version="1.1" id="Layer_1" xmlns="http://www.w3.org/2000/svg" xmlns:xlink="http://www.w3.org/1999/xlink" x="0px" y="0px"
	 viewBox="0 0 800 330" style="enable-background:new 0 0 800 330;" xml:space="preserve">
<g id="logo-campus-virtual">
	<g>
		<path d="M29.9,207.4l-4.4,7.7L29.9,207.4z M29.9,101.4v106l0,0l-4.4,7.7v5.5h192.9v-5.5l-4.4-8l0,0V101.2h-5.9V59h-3.9V46.4
			c1.9-1.8,2.8-4.4,2.7-7c0-6-4.9-10.9-10.9-10.9s-10.9,4.9-10.9,10.9c0,2.7,1.1,5.3,3,7.2V59h-4v42.4h-23.4V64.2l1.1-2.5h-79
			l1.1,2.5V95l0,0v6.4H59.4V58.9h-3.8V46.3c1.9-1.8,3-4.3,2.9-7c0-6-4.9-10.9-10.9-10.9s-10.9,4.9-10.9,10.9c0,2.7,1.1,5.3,2.9,7.2
			V59H36v42.5h-6.1V101.4z M23.3,104.9l-4.1-3.6H19V95h10.9V58.8l0,0v-6.4h3.5v-2.8c-1.6-3-2.6-6.4-2.8-9.8c0-8.5,6-15.7,14.3-17.3
			v-1.7c-0.7-0.8-1.1-1.7-1.1-2.8c0-1.3,0.6-2.5,1.6-3.2L46.6,3c-0.1-0.2-0.1-0.4,0-0.6c0-0.7,0.6-1.3,1.3-1.3s1.3,0.6,1.4,1.3
			c0.1,0.2,0.1,0.4,0,0.6l0.8,11.8c1.1,0.7,1.8,1.9,1.8,3.3c0,1.1-0.4,2.1-1.2,2.8v1.7c8.4,1.4,14.6,8.7,14.6,17.3
			c-0.2,3.5-1.2,7-2.9,10.1v2.8h3.7v6.4l0,0v36.2h11.8V65.3L74.4,62v-5l3.5-1.7l0,0l2-3.8h4.9l3.7,3.8h18.3l3.3-3.5h4.9l3.4,3.5h8
			l3.3-3.5h4.9l3.3,3.5h19.2l3.6-3.8h4.4l1.8,3.7l3.7,1.7v4.9l-3.5,3.3V95h11V52.6h3.8v-3c-1.6-3-2.5-6.4-2.7-9.8
			c0.1-8.3,6-15.3,14.1-17v-1.7c-1.6-1.6-1.5-4.1,0-5.6c0.2-0.2,0.4-0.4,0.6-0.5l1.3-11.9c0-0.2,0-0.4,0-0.6
			c0.1-0.7,0.7-1.2,1.4-1.2s1.3,0.6,1.3,1.3c0,0.2,0,0.4,0,0.6l1,11.7c1,0.7,1.6,1.9,1.6,3.2c0,1-0.4,2.1-1.2,2.8v1.7
			c8.3,1.6,14.3,8.8,14.3,17.3c-0.2,3.5-1.2,7-2.9,10.1v2.9h3.9v42H225v6.4h-0.5l-4,3.6v35.8h4.3v6l-4.3,3.7V175h4.3v6l-4.3,3.7
			v22.4l0,0l4.3,4v9.6l0,0v6.4H19v-6.5l0,0V211l4.3-3.7l0,0v-22.5l-4.3-3.7v-6h4.3v-24.6l-4.3-3.7v-6h4.3V104.9z"/>
	</g>
	<g>
		<path d="M283.6,141.5v84.2h13.8v-37.1h38.3v-12.4h-38.3v-22.5h43.7v-12.3L283.6,141.5L283.6,141.5z M353,141.5v84.2h14.1v-84
			L353,141.5z M422.2,139.5c-25,0-40.4,16.6-40.4,44.4s15.4,44.4,40.4,44.4s40.4-16.7,40.4-44.4
			C462.6,156.3,447.1,139.5,422.2,139.5z M422.2,151.7c16.2,0,26.2,11.6,26.2,32.2s-10,32.2-26.2,32.2S396,204.3,396,183.9
			C395.9,163.4,406,151.7,422.2,151.7z M548.1,168.1c-1.5-17.5-14.4-28.5-34.9-28.5c-24.9,0-39.8,16.4-39.8,44.4
			s14.7,44.4,38.8,44.4c21,0,35.6-13.5,36.3-32.6h-13.7c-0.6,11.6-10.4,20.5-22,19.9c0,0,0,0-0.1,0c-15.3,0-25.1-12-25.1-32.3
			s9.2-31.5,25.3-31.5c12.1,0,19.8,5.8,21.3,15.7L548.1,168.1z M562.1,141.8v83.9h14V191h21c11.1,0,12.9,4.7,13.3,13.5l0.5,10.1
			c-0.1,3.8,0.6,7.6,2.1,11.1h15.7v-2.3c-3.2-1.7-3.3-4.8-3.5-9.7l-0.7-12.1c-0.5-9.1-2.1-14.3-10.1-16.8
			c7.8-3.2,12.7-11.1,12.1-19.6c1-12-7.9-22.5-19.9-23.5c-1.3-0.1-2.6-0.1-3.8,0c-0.5,0-2,0-4.5,0L562.1,141.8z M575.9,153.7h20.4
			c10.5,0,16.2,3,16.2,12.8c0,9.7-5.2,13.1-16.5,13.1h-20v-26.2v0.3H575.9z M642,141.8v52.9c0,22,11.3,33.4,33.3,33.4
			c21,0,33.4-11.7,33.4-33.4v-53.2h-14.1V194c0,14.3-6,21.3-19.3,21.3s-19.2-7-19.2-21.3v-52.5L642,141.8z M722.2,141.8v11.9h46.3
			L719.4,214v11.7h65.3v-12.4h-48.2l48.5-59.6v-12.3L722.2,141.8z"/>
	</g>
	<g>
		<g>
			<path d="M55.1,329.1c-4.3,0-8.2-0.8-11.9-2.3s-6.9-3.8-9.6-6.7c-2.7-2.9-4.8-6.5-6.4-10.8s-2.3-9.2-2.3-14.8
				c0-5.5,0.8-10.5,2.5-14.8s3.9-7.9,6.7-10.8s6.1-5.1,9.7-6.6c3.7-1.5,7.6-2.2,11.6-2.2c2.5,0,4.7,0.2,6.8,0.5
				c2,0.3,3.8,0.7,5.4,1.2c1.5,0.5,2.8,1,3.9,1.4c1.1,0.5,1.9,0.9,2.5,1.3l-2,5.5c-1.6-1-3.6-1.9-6.1-2.8s-5.5-1.4-9.1-1.4
				c-4.1,0-7.8,0.7-10.8,2.1c-3.1,1.4-5.7,3.4-7.8,5.9s-3.7,5.6-4.7,9.1c-1.1,3.5-1.6,7.4-1.6,11.7c0,4.4,0.5,8.4,1.6,11.9
				c1.1,3.5,2.6,6.5,4.6,9s4.5,4.4,7.5,5.7s6.4,2,10.2,2c4.2,0,7.7-0.4,10.6-1.2c2.8-0.8,5-1.6,6.5-2.4l1.8,5.5
				c-0.4,0.3-1.2,0.7-2.3,1.1c-1.1,0.4-2.5,0.8-4.1,1.3c-1.7,0.4-3.6,0.8-5.7,1.1C60.2,329,57.8,329.1,55.1,329.1z"/>
		</g>
		<g>
			<path d="M132.5,327.7c-1.3-3.3-2.4-6.4-3.5-9.4c-1.1-3-2.1-5.9-3-8.8H93.7c-1.1,2.9-2.2,5.8-3.2,8.8c-1.1,3-2.2,6.1-3.4,9.4h-6.8
				c2.5-6.9,4.9-13.3,7.1-19.3s4.4-11.6,6.6-16.9c2.1-5.3,4.3-10.4,6.4-15.3s4.3-9.8,6.7-14.7h5.7c2.3,4.9,4.6,9.8,6.7,14.7
				c2.1,4.9,4.2,10,6.4,15.3s4.3,10.9,6.6,16.9s4.7,12.4,7.3,19.3H132.5z M109.8,268.9c-2.4,5.5-4.7,11.1-7,16.7
				c-2.3,5.7-4.6,11.8-7.1,18.3H124c-2.4-6.6-4.8-12.7-7.1-18.4C114.5,279.9,112.1,274.4,109.8,268.9z"/>
		</g>
		<g>
			<path d="M179,318.1c-0.6-1.6-1.6-3.7-2.7-6.3c-1.2-2.6-2.5-5.5-4-8.6s-3-6.3-4.5-9.6c-1.5-3.3-3-6.4-4.4-9.2
				c-1.4-2.9-2.7-5.4-3.7-7.6c-1.1-2.2-1.9-3.7-2.4-4.6c-0.8,8-1.5,16.6-2,25.9s-0.9,19.1-1.3,29.4h-6.4c0.6-12,1.2-23.6,2-34.6
				c0.7-11,1.6-21.6,2.7-31.6h5.7c1.9,3.2,4,6.9,6.1,11c2.2,4.2,4.3,8.5,6.5,13c2.1,4.5,4.2,8.9,6.2,13.3s3.8,8.3,5.3,11.8
				c1.5-3.5,3.3-7.4,5.3-11.8s4.1-8.8,6.2-13.3c2.1-4.5,4.3-8.8,6.5-13s4.2-7.9,6.1-11h5.4c1.1,10.1,2,20.6,2.7,31.6
				s1.4,22.6,2,34.6h-6.6c-0.4-10.3-0.8-20.1-1.3-29.4s-1.1-18-2-25.9c-0.5,0.9-1.3,2.4-2.4,4.6c-1.1,2.2-2.3,4.7-3.7,7.6
				s-2.9,5.9-4.4,9.2c-1.5,3.3-3,6.5-4.5,9.6s-2.8,5.9-4,8.6c-1.2,2.6-2.1,4.7-2.7,6.3H179z"/>
		</g>
		<g>
			<path d="M248.6,260.9c9.4,0,16.3,1.8,20.9,5.4s6.9,8.6,6.9,15.2c0,3.8-0.7,7-2,9.6s-3.2,4.8-5.7,6.4s-5.5,2.8-9.1,3.5
				s-7.7,1.1-12.2,1.1h-9v25.6h-6.5v-65c2.3-0.6,5-1.1,8.1-1.4C243,261,245.9,260.9,248.6,260.9z M248.9,266.5
				c-2.4,0-4.5,0.1-6.2,0.2c-1.7,0.2-3.1,0.3-4.3,0.4v29.2h8.2c3.5,0,6.7-0.2,9.5-0.6s5.3-1.2,7.3-2.3c2-1.1,3.6-2.7,4.6-4.6
				c1.1-2,1.6-4.5,1.6-7.6c0-2.9-0.6-5.4-1.8-7.3c-1.2-1.9-2.7-3.4-4.7-4.5c-1.9-1.1-4.2-1.9-6.6-2.3
				C254,266.7,251.5,266.5,248.9,266.5z"/>
		</g>
		<g>
			<path d="M312.3,329.1c-4.4,0-8.1-0.7-11.2-2s-5.6-3.2-7.5-5.5c-1.9-2.4-3.3-5.1-4.2-8.3c-0.9-3.2-1.3-6.5-1.3-10.2v-41.7h6.5
				v40.8c0,3.6,0.4,6.8,1.3,9.4s2.1,4.8,3.6,6.5s3.4,3,5.5,3.8c2.2,0.8,4.6,1.2,7.3,1.2c2.7,0,5.1-0.4,7.3-1.2
				c2.2-0.8,4-2.1,5.5-3.8c1.5-1.7,2.7-3.9,3.6-6.5s1.3-5.8,1.3-9.4v-40.8h6.5v41.7c0,3.6-0.4,7-1.3,10.2s-2.2,5.9-4.2,8.3
				c-1.9,2.4-4.4,4.2-7.5,5.5C320.5,328.4,316.7,329.1,312.3,329.1z"/>
		</g>
		<g>
			<path d="M367.7,323.5c5.2,0,9.2-0.9,12-2.8c2.9-1.9,4.3-4.9,4.3-9.1c0-2.4-0.5-4.5-1.4-6.1s-2.2-3-3.7-4.1s-3.3-2.1-5.3-2.9
				s-4-1.6-6.2-2.5c-2.7-1.1-5.2-2.2-7.4-3.3c-2.2-1.1-4-2.4-5.5-3.9c-1.5-1.4-2.7-3.1-3.5-4.9s-1.2-4-1.2-6.5
				c0-5.7,1.9-10,5.6-12.9c3.8-2.9,9-4.4,15.7-4.4c1.8,0,3.5,0.1,5.3,0.4c1.7,0.3,3.3,0.6,4.8,1s2.9,0.9,4.1,1.4s2.3,1.1,3.1,1.6
				l-2.3,5.4c-1.8-1.3-4.1-2.3-6.7-3.1c-2.6-0.8-5.5-1.1-8.6-1.1c-2.1,0-4,0.2-5.8,0.6s-3.3,1.1-4.5,2c-1.3,0.9-2.3,2.1-3,3.5
				s-1.1,3.1-1.1,5.1s0.4,3.8,1.1,5.2c0.8,1.4,1.8,2.6,3.2,3.6c1.4,1,3,1.9,4.8,2.8c1.8,0.8,3.9,1.7,6,2.6c2.6,1.1,5.1,2.2,7.4,3.2
				c2.3,1.1,4.4,2.4,6.1,3.8c1.7,1.5,3.1,3.2,4.1,5.4c1,2.1,1.5,4.7,1.5,7.7c0,6-2.1,10.5-6.3,13.5c-4.2,3-9.8,4.5-17,4.5
				c-2.5,0-4.9-0.2-7-0.5s-4-0.7-5.6-1.2c-1.7-0.5-3.1-1-4.2-1.5s-2-1-2.7-1.3l2.1-5.6c0.6,0.4,1.5,0.8,2.6,1.3s2.4,1,3.8,1.5
				c1.5,0.5,3.1,0.9,5,1.2C363.4,323.3,365.4,323.5,367.7,323.5z"/>
		</g>
		<g>
			<path d="M424.2,261.4c1.9,5.7,3.8,11,5.6,16.1c1.8,5.1,3.6,10,5.3,14.7c1.7,4.7,3.5,9.4,5.2,14c1.8,4.6,3.7,9.2,5.8,13.8
				c2-4.6,3.9-9.1,5.7-13.7c1.8-4.6,3.6-9.2,5.4-14c1.8-4.7,3.5-9.7,5.3-14.8c1.8-5.1,3.6-10.5,5.5-16.2h6.9
				c-2.9,8.4-5.6,15.7-7.9,22s-4.5,12-6.5,17.1s-3.9,9.8-5.7,14.1c-1.8,4.3-3.7,8.6-5.7,13H443c-1.9-4.4-3.8-8.8-5.7-13.1
				c-1.9-4.3-3.8-9-5.8-14.1s-4.2-10.8-6.5-17.1c-2.3-6.3-5-13.6-7.9-22h7.1V261.4z"/>
		</g>
		<g>
			<path d="M484.3,261.4h6.5v66.2h-6.5V261.4z"/>
		</g>
		<g>
			<path d="M552.1,281.3c0,5-1.3,8.9-3.9,11.8c-2.6,2.9-6.1,4.9-10.3,6.2c1,1.3,2.3,3,4,5.2c1.6,2.2,3.3,4.5,5,7.1s3.4,5.3,5.1,8.1
				c1.7,2.8,3.1,5.5,4.2,8h-7c-1.3-2.5-2.8-5.1-4.3-7.6c-1.6-2.5-3.2-5-4.8-7.4s-3.2-4.6-4.7-6.6s-2.9-3.8-4-5.4
				c-2,0.2-4.1,0.3-6.1,0.3h-10.7v26.8H508v-65c2.3-0.6,5-1.1,8.1-1.4s5.9-0.4,8.6-0.4c9.1,0,16,1.7,20.6,5.2
				S552.1,274.6,552.1,281.3z M525.4,266.5c-2.4,0-4.5,0.1-6.4,0.2c-1.8,0.2-3.3,0.3-4.5,0.4v28.2h9c3,0,5.8-0.1,8.5-0.4
				s5-0.9,7-1.9s3.5-2.4,4.7-4.3c1.1-1.8,1.7-4.4,1.7-7.6c0-2.9-0.6-5.4-1.7-7.3c-1.1-1.9-2.6-3.4-4.5-4.5c-1.8-1.1-4-1.9-6.4-2.3
				S527.9,266.5,525.4,266.5z"/>
		</g>
		<g>
			<path d="M609.1,261.4v5.6h-21.2v60.6h-6.5V267h-21.2v-5.6H609.1z"/>
		</g>
		<g>
			<path d="M643.3,329.1c-4.4,0-8.1-0.7-11.2-2c-3.1-1.3-5.6-3.2-7.5-5.5c-1.9-2.4-3.3-5.1-4.2-8.3c-0.9-3.2-1.3-6.5-1.3-10.2v-41.7
				h6.5v40.8c0,3.6,0.4,6.8,1.3,9.4c0.9,2.6,2.1,4.8,3.6,6.5s3.4,3,5.5,3.8c2.2,0.8,4.6,1.2,7.3,1.2s5.1-0.4,7.3-1.2
				c2.2-0.8,4-2.1,5.5-3.8c1.5-1.7,2.7-3.9,3.6-6.5c0.9-2.6,1.3-5.8,1.3-9.4v-40.8h6.5v41.7c0,3.6-0.4,7-1.3,10.2
				c-0.9,3.2-2.2,5.9-4.2,8.3c-1.9,2.4-4.4,4.2-7.5,5.5C651.5,328.4,647.7,329.1,643.3,329.1z"/>
		</g>
		<g>
			<path d="M729,327.7c-1.3-3.3-2.4-6.4-3.5-9.4s-2.1-5.9-3-8.8h-32.4c-1.1,2.9-2.2,5.8-3.2,8.8c-1.1,3-2.2,6.1-3.4,9.4h-6.8
				c2.5-6.9,4.9-13.3,7.1-19.3c2.2-6,4.4-11.6,6.6-16.9c2.2-5.3,4.3-10.4,6.4-15.3c2.1-4.9,4.3-9.8,6.7-14.7h5.7
				c2.3,4.9,4.6,9.8,6.7,14.7c2.1,4.9,4.2,10,6.4,15.3s4.3,10.9,6.6,16.9s4.7,12.4,7.3,19.3H729z M706.3,268.9
				c-2.4,5.5-4.7,11.1-7,16.7c-2.3,5.7-4.6,11.8-7.1,18.3h28.3c-2.4-6.6-4.8-12.7-7.1-18.4C711,279.9,708.6,274.4,706.3,268.9z"/>
		</g>
		<g>
			<path d="M783.3,322v5.6h-37.7v-66.2h6.5V322H783.3z"/>
		</g>
	</g>
</g>
</svg>
